<svg xmlns="http://www.w3.org/2000/svg" fill="currentColor" viewBox="0 0 375 375"><defs><clipPath><path d="M124.21 69H250v236.922H124.21Zm0 0"></path></clipPath></defs><g clip-path="url(#a)"><path d="M245.344 195.79c-3.555-7.47-9.117-13.864-15.442-19.134-14.714-12.265-33.183-18.172-50.226-26.32-7.375-3.524-15.27-7.684-19.961-14.637-2.473-3.668-3.742-7.926-3.653-12.347.094-4.645 1.57-9.188 3.555-13.356 2.004-4.207 4.555-8.125 7.274-11.902 2.761-3.84 5.699-7.555 8.964-10.98 6.38-6.688 14.145-12.22 23.235-14.462 4.433-1.09 9.047-1.336 13.543-.496 1.082.203 1.543-1.449.457-1.652-8.582-1.598-17.38.476-24.93 4.668-7.82 4.34-14.176 10.875-19.613 17.875-5.379 6.926-10.664 14.476-13.055 23.012-1.137 4.054-1.515 8.343-.66 12.488.785 3.8 2.621 7.27 5.098 10.242 5.222 6.281 12.793 10.152 20.062 13.574 8.676 4.082 17.61 7.602 26.27 11.73 15.047 7.18 30.23 17.028 37.62 32.56 7.036 14.785 4.302 32.628-5.253 45.66-9.895 13.492-26.793 20.695-43.293 20.773a59.908 59.908 0 0 1-2.774-.05c1.598-3.919 2.723-8.016 3.172-12.212.864-8.05-1.25-16.59-7.78-21.824-5.173-4.145-12.552-6.191-18.782-3.223-6.402 3.047-8.996 10.442-8.188 17.133.93 7.684 6.028 13.688 12.762 17.223 4.996 2.625 10.594 3.988 16.254 4.465-3.074 6.656-7.395 12.734-12.527 17.96-10.828 11.028-25.442 18.477-40.82 20.403a65.066 65.066 0 0 1-11.337.414c-1.105-.059-1.097 1.656 0 1.71 15.903.806 31.836-4.374 44.621-13.76 6.31-4.634 11.868-10.266 16.305-16.723 2.13-3.098 4.043-6.41 5.594-9.883a60.43 60.43 0 0 0 6.066 0c8.414-.41 16.754-2.57 24.25-6.418 14.868-7.63 25.25-22.063 27.141-38.715.914-8.149-.418-16.383-3.95-23.797Zm-73.328 61.343c-6.23-4.133-10.098-10.887-9.41-18.453.636-7.004 5.863-12.711 13.148-12.606 6.824.098 13.441 4.68 16.289 10.805 3.828 8.238 2.094 17.98-1.328 26.05-6.582-.476-13.195-2.148-18.7-5.796Zm0 0"></path></g></svg>
