<svg xmlns="http://www.w3.org/2000/svg" xmlns:xlink="http://www.w3.org/1999/xlink" width="1080" zoomAndPan="magnify" viewBox="0 0 810 1439.999935" height="1920" preserveAspectRatio="xMidYMid meet" version="1.0"><defs><g/><clipPath id="9676c6cad9"><path d="M 81 147.027344 L 729 147.027344 L 729 149.890625 L 81 149.890625 Z M 81 147.027344 " clip-rule="nonzero"/></clipPath></defs><rect x="-81" width="972" fill="#ffffff" y="-143.999994" height="1727.999922" fill-opacity="1"/><rect x="-81" width="972" fill="#ffffff" y="-143.999994" height="1727.999922" fill-opacity="1"/><rect x="-81" width="972" fill="#ff3131" y="-143.999994" height="1727.999922" fill-opacity="1"/><g fill="#faf5f0" fill-opacity="1"><g transform="translate(61.964024, 466.740643)"><g><path d="M 29.84375 -103.421875 C 38.019531 -103.421875 44.101562 -101.253906 48.09375 -96.921875 C 52.082031 -92.585938 54.078125 -86.234375 54.078125 -77.859375 L 54.078125 -64.421875 C 54.078125 -56.046875 52.082031 -49.691406 48.09375 -45.359375 C 44.101562 -41.023438 38.019531 -38.859375 29.84375 -38.859375 L 22.15625 -38.859375 L 22.15625 0 L 5.90625 0 L 5.90625 -103.421875 Z M 22.15625 -88.65625 L 22.15625 -53.640625 L 29.84375 -53.640625 C 32.40625 -53.640625 34.375 -54.328125 35.75 -55.703125 C 37.132812 -57.078125 37.828125 -59.640625 37.828125 -63.390625 L 37.828125 -78.90625 C 37.828125 -82.644531 37.132812 -85.203125 35.75 -86.578125 C 34.375 -87.960938 32.40625 -88.65625 29.84375 -88.65625 Z M 22.15625 -88.65625 "/></g></g></g><g fill="#faf5f0" fill-opacity="1"><g transform="translate(118.404529, 466.740643)"><g><path d="M 20.828125 -23.78125 C 20.828125 -20.039062 21.585938 -17.40625 23.109375 -15.875 C 24.640625 -14.351562 26.6875 -13.59375 29.25 -13.59375 C 31.8125 -13.59375 33.851562 -14.351562 35.375 -15.875 C 36.90625 -17.40625 37.671875 -20.039062 37.671875 -23.78125 L 37.671875 -79.640625 C 37.671875 -83.378906 36.90625 -86.007812 35.375 -87.53125 C 33.851562 -89.0625 31.8125 -89.828125 29.25 -89.828125 C 26.6875 -89.828125 24.640625 -89.0625 23.109375 -87.53125 C 21.585938 -86.007812 20.828125 -83.378906 20.828125 -79.640625 Z M 4.578125 -78.609375 C 4.578125 -86.972656 6.691406 -93.394531 10.921875 -97.875 C 15.160156 -102.363281 21.269531 -104.609375 29.25 -104.609375 C 37.226562 -104.609375 43.332031 -102.363281 47.5625 -97.875 C 51.800781 -93.394531 53.921875 -86.972656 53.921875 -78.609375 L 53.921875 -24.828125 C 53.921875 -16.453125 51.800781 -10.019531 47.5625 -5.53125 C 43.332031 -1.050781 37.226562 1.1875 29.25 1.1875 C 21.269531 1.1875 15.160156 -1.050781 10.921875 -5.53125 C 6.691406 -10.019531 4.578125 -16.453125 4.578125 -24.828125 Z M 4.578125 -78.609375 "/></g></g></g><g fill="#faf5f0" fill-opacity="1"><g transform="translate(176.913531, 466.740643)"><g><path d="M 39.890625 0 C 39.691406 -0.6875 39.492188 -1.328125 39.296875 -1.921875 C 39.097656 -2.515625 38.925781 -3.253906 38.78125 -4.140625 C 38.632812 -5.023438 38.535156 -6.15625 38.484375 -7.53125 C 38.441406 -8.914062 38.421875 -10.640625 38.421875 -12.703125 L 38.421875 -28.953125 C 38.421875 -33.785156 37.582031 -37.1875 35.90625 -39.15625 C 34.226562 -41.125 31.519531 -42.109375 27.78125 -42.109375 L 22.15625 -42.109375 L 22.15625 0 L 5.90625 0 L 5.90625 -103.421875 L 30.4375 -103.421875 C 38.90625 -103.421875 45.035156 -101.453125 48.828125 -97.515625 C 52.617188 -93.578125 54.515625 -87.617188 54.515625 -79.640625 L 54.515625 -71.515625 C 54.515625 -60.867188 50.96875 -53.875 43.875 -50.53125 C 48.019531 -48.851562 50.851562 -46.117188 52.375 -42.328125 C 53.90625 -38.535156 54.671875 -33.929688 54.671875 -28.515625 L 54.671875 -12.5625 C 54.671875 -10 54.769531 -7.753906 54.96875 -5.828125 C 55.164062 -3.910156 55.65625 -1.96875 56.4375 0 Z M 22.15625 -88.65625 L 22.15625 -56.890625 L 28.515625 -56.890625 C 31.566406 -56.890625 33.953125 -57.675781 35.671875 -59.25 C 37.398438 -60.820312 38.265625 -63.675781 38.265625 -67.8125 L 38.265625 -78.015625 C 38.265625 -81.753906 37.597656 -84.460938 36.265625 -86.140625 C 34.941406 -87.816406 32.851562 -88.65625 30 -88.65625 Z M 22.15625 -88.65625 "/></g></g></g><g fill="#faf5f0" fill-opacity="1"><g transform="translate(236.309037, 466.740643)"><g><path d="M 4.578125 -78.609375 C 4.578125 -86.972656 6.691406 -93.394531 10.921875 -97.875 C 15.160156 -102.363281 21.269531 -104.609375 29.25 -104.609375 C 37.226562 -104.609375 43.332031 -102.363281 47.5625 -97.875 C 51.800781 -93.394531 53.921875 -86.972656 53.921875 -78.609375 L 53.921875 -24.828125 C 53.921875 -19.015625 52.890625 -14.1875 50.828125 -10.34375 C 51.222656 -9.351562 51.738281 -8.734375 52.375 -8.484375 C 53.019531 -8.242188 54.03125 -8.125 55.40625 -8.125 L 56.890625 -8.125 L 56.890625 6.359375 L 54.671875 6.359375 C 51.023438 6.359375 48.039062 5.738281 45.71875 4.5 C 43.40625 3.269531 41.707031 1.523438 40.625 -0.734375 C 38.957031 -0.148438 37.1875 0.3125 35.3125 0.65625 C 33.4375 1.007812 31.414062 1.1875 29.25 1.1875 C 21.269531 1.1875 15.160156 -1.050781 10.921875 -5.53125 C 6.691406 -10.019531 4.578125 -16.453125 4.578125 -24.828125 Z M 20.828125 -23.78125 C 20.828125 -20.039062 21.585938 -17.40625 23.109375 -15.875 C 24.640625 -14.351562 26.6875 -13.59375 29.25 -13.59375 C 31.8125 -13.59375 33.851562 -14.351562 35.375 -15.875 C 36.90625 -17.40625 37.671875 -20.039062 37.671875 -23.78125 L 37.671875 -79.640625 C 37.671875 -83.378906 36.90625 -86.007812 35.375 -87.53125 C 33.851562 -89.0625 31.8125 -89.828125 29.25 -89.828125 C 26.6875 -89.828125 24.640625 -89.0625 23.109375 -87.53125 C 21.585938 -86.007812 20.828125 -83.378906 20.828125 -79.640625 Z M 20.828125 -23.78125 "/></g></g></g><g fill="#faf5f0" fill-opacity="1"><g transform="translate(294.818039, 466.740643)"><g><path d="M 21.421875 -103.421875 L 21.421875 -23.640625 C 21.421875 -19.898438 22.179688 -17.289062 23.703125 -15.8125 C 25.234375 -14.332031 27.28125 -13.59375 29.84375 -13.59375 C 32.40625 -13.59375 34.445312 -14.332031 35.96875 -15.8125 C 37.5 -17.289062 38.265625 -19.898438 38.265625 -23.640625 L 38.265625 -103.421875 L 53.640625 -103.421875 L 53.640625 -24.671875 C 53.640625 -16.296875 51.59375 -9.867188 47.5 -5.390625 C 43.414062 -0.910156 37.382812 1.328125 29.40625 1.328125 C 21.425781 1.328125 15.390625 -0.910156 11.296875 -5.390625 C 7.210938 -9.867188 5.171875 -16.296875 5.171875 -24.671875 L 5.171875 -103.421875 Z M 21.421875 -103.421875 "/></g></g></g><g fill="#faf5f0" fill-opacity="1"><g transform="translate(353.622539, 466.740643)"><g><path d="M 22.15625 -59.84375 L 44.46875 -59.84375 L 44.46875 -45.0625 L 22.15625 -45.0625 L 22.15625 -14.78125 L 50.234375 -14.78125 L 50.234375 0 L 5.90625 0 L 5.90625 -103.421875 L 50.234375 -103.421875 L 50.234375 -88.65625 L 22.15625 -88.65625 Z M 45.359375 -125.296875 L 30.28125 -108.890625 L 19.359375 -108.890625 L 29.40625 -125.296875 Z M 45.359375 -125.296875 "/></g></g></g><g fill="#faf5f0" fill-opacity="1"><g transform="translate(407.983529, 466.740643)"><g/></g></g><g fill="#faf5f0" fill-opacity="1"><g transform="translate(61.964024, 594.990632)"><g/></g></g><g fill="#faf5f0" fill-opacity="1"><g transform="translate(84.86246, 594.990632)"><g><path d="M 4.578125 -78.609375 C 4.578125 -86.972656 6.691406 -93.394531 10.921875 -97.875 C 15.160156 -102.363281 21.269531 -104.609375 29.25 -104.609375 C 37.226562 -104.609375 43.332031 -102.363281 47.5625 -97.875 C 51.800781 -93.394531 53.921875 -86.972656 53.921875 -78.609375 L 53.921875 -24.828125 C 53.921875 -19.015625 52.890625 -14.1875 50.828125 -10.34375 C 51.222656 -9.351562 51.738281 -8.734375 52.375 -8.484375 C 53.019531 -8.242188 54.03125 -8.125 55.40625 -8.125 L 56.890625 -8.125 L 56.890625 6.359375 L 54.671875 6.359375 C 51.023438 6.359375 48.039062 5.738281 45.71875 4.5 C 43.40625 3.269531 41.707031 1.523438 40.625 -0.734375 C 38.957031 -0.148438 37.1875 0.3125 35.3125 0.65625 C 33.4375 1.007812 31.414062 1.1875 29.25 1.1875 C 21.269531 1.1875 15.160156 -1.050781 10.921875 -5.53125 C 6.691406 -10.019531 4.578125 -16.453125 4.578125 -24.828125 Z M 20.828125 -23.78125 C 20.828125 -20.039062 21.585938 -17.40625 23.109375 -15.875 C 24.640625 -14.351562 26.6875 -13.59375 29.25 -13.59375 C 31.8125 -13.59375 33.851562 -14.351562 35.375 -15.875 C 36.90625 -17.40625 37.671875 -20.039062 37.671875 -23.78125 L 37.671875 -79.640625 C 37.671875 -83.378906 36.90625 -86.007812 35.375 -87.53125 C 33.851562 -89.0625 31.8125 -89.828125 29.25 -89.828125 C 26.6875 -89.828125 24.640625 -89.0625 23.109375 -87.53125 C 21.585938 -86.007812 20.828125 -83.378906 20.828125 -79.640625 Z M 20.828125 -23.78125 "/></g></g></g><g fill="#faf5f0" fill-opacity="1"><g transform="translate(143.371461, 594.990632)"><g><path d="M 21.421875 -103.421875 L 21.421875 -23.640625 C 21.421875 -19.898438 22.179688 -17.289062 23.703125 -15.8125 C 25.234375 -14.332031 27.28125 -13.59375 29.84375 -13.59375 C 32.40625 -13.59375 34.445312 -14.332031 35.96875 -15.8125 C 37.5 -17.289062 38.265625 -19.898438 38.265625 -23.640625 L 38.265625 -103.421875 L 53.640625 -103.421875 L 53.640625 -24.671875 C 53.640625 -16.296875 51.59375 -9.867188 47.5 -5.390625 C 43.414062 -0.910156 37.382812 1.328125 29.40625 1.328125 C 21.425781 1.328125 15.390625 -0.910156 11.296875 -5.390625 C 7.210938 -9.867188 5.171875 -16.296875 5.171875 -24.671875 L 5.171875 -103.421875 Z M 21.421875 -103.421875 "/></g></g></g><g fill="#faf5f0" fill-opacity="1"><g transform="translate(202.175961, 594.990632)"><g><path d="M 5.90625 -103.421875 L 22.15625 -103.421875 L 22.15625 0 L 5.90625 0 Z M 5.90625 -103.421875 "/></g></g></g><g fill="#faf5f0" fill-opacity="1"><g transform="translate(230.248464, 594.990632)"><g><path d="M 50.96875 -103.421875 L 50.96875 -88.953125 L 20.09375 -14.78125 L 50.96875 -14.78125 L 50.96875 0 L 3.390625 0 L 3.390625 -14.484375 L 34.28125 -88.65625 L 4.875 -88.65625 L 4.875 -103.421875 Z M 50.96875 -103.421875 "/></g></g></g><g fill="#faf5f0" fill-opacity="1"><g transform="translate(284.915971, 594.990632)"><g><path d="M 58.515625 0 L 42.109375 0 L 39.296875 -18.765625 L 19.359375 -18.765625 L 16.546875 0 L 1.625 0 L 18.171875 -103.421875 L 41.96875 -103.421875 Z M 21.421875 -32.796875 L 37.078125 -32.796875 L 29.25 -85.109375 Z M 47.421875 -125.296875 L 32.359375 -108.890625 L 21.421875 -108.890625 L 31.46875 -125.296875 Z M 47.421875 -125.296875 "/></g></g></g><g fill="#faf5f0" fill-opacity="1"><g transform="translate(345.050228, 594.990632)"><g><path d="M 3.84375 -78.609375 C 3.84375 -86.972656 5.835938 -93.394531 9.828125 -97.875 C 13.816406 -102.363281 19.800781 -104.609375 27.78125 -104.609375 C 35.757812 -104.609375 41.742188 -102.363281 45.734375 -97.875 C 49.722656 -93.394531 51.71875 -86.972656 51.71875 -78.609375 L 51.71875 -75.359375 L 36.34375 -75.359375 L 36.34375 -79.640625 C 36.34375 -83.378906 35.628906 -86.007812 34.203125 -87.53125 C 32.773438 -89.0625 30.78125 -89.828125 28.21875 -89.828125 C 25.65625 -89.828125 23.660156 -89.0625 22.234375 -87.53125 C 20.804688 -86.007812 20.09375 -83.378906 20.09375 -79.640625 C 20.09375 -76.085938 20.878906 -72.957031 22.453125 -70.25 C 24.035156 -67.539062 26.003906 -64.976562 28.359375 -62.5625 C 30.722656 -60.15625 33.257812 -57.742188 35.96875 -55.328125 C 38.6875 -52.921875 41.222656 -50.285156 43.578125 -47.421875 C 45.941406 -44.566406 47.910156 -41.316406 49.484375 -37.671875 C 51.066406 -34.023438 51.859375 -29.742188 51.859375 -24.828125 C 51.859375 -16.453125 49.8125 -10.019531 45.71875 -5.53125 C 41.632812 -1.050781 35.601562 1.1875 27.625 1.1875 C 19.644531 1.1875 13.609375 -1.050781 9.515625 -5.53125 C 5.429688 -10.019531 3.390625 -16.453125 3.390625 -24.828125 L 3.390625 -31.171875 L 18.765625 -31.171875 L 18.765625 -23.78125 C 18.765625 -20.039062 19.523438 -17.429688 21.046875 -15.953125 C 22.578125 -14.472656 24.625 -13.734375 27.1875 -13.734375 C 29.75 -13.734375 31.789062 -14.472656 33.3125 -15.953125 C 34.84375 -17.429688 35.609375 -20.039062 35.609375 -23.78125 C 35.609375 -27.332031 34.816406 -30.460938 33.234375 -33.171875 C 31.660156 -35.878906 29.691406 -38.4375 27.328125 -40.84375 C 24.960938 -43.257812 22.425781 -45.675781 19.71875 -48.09375 C 17.007812 -50.507812 14.472656 -53.144531 12.109375 -56 C 9.742188 -58.851562 7.773438 -62.101562 6.203125 -65.75 C 4.628906 -69.394531 3.84375 -73.679688 3.84375 -78.609375 Z M 3.84375 -78.609375 "/></g></g></g><g fill="#faf5f0" fill-opacity="1"><g transform="translate(400.308729, 594.990632)"><g/></g></g><g fill="#faf5f0" fill-opacity="1"><g transform="translate(423.20998, 594.990632)"><g><path d="M 21.125 -34.28125 L 0.59375 -103.421875 L 17.578125 -103.421875 L 30 -56.296875 L 42.40625 -103.421875 L 57.921875 -103.421875 L 37.375 -34.28125 L 37.375 0 L 21.125 0 Z M 21.125 -34.28125 "/></g></g></g><g fill="#faf5f0" fill-opacity="1"><g transform="translate(481.718993, 594.990632)"><g/></g></g><g fill="#faf5f0" fill-opacity="1"><g transform="translate(504.620267, 594.990632)"><g><path d="M 3.84375 -78.609375 C 3.84375 -86.972656 5.835938 -93.394531 9.828125 -97.875 C 13.816406 -102.363281 19.800781 -104.609375 27.78125 -104.609375 C 35.757812 -104.609375 41.742188 -102.363281 45.734375 -97.875 C 49.722656 -93.394531 51.71875 -86.972656 51.71875 -78.609375 L 51.71875 -75.359375 L 36.34375 -75.359375 L 36.34375 -79.640625 C 36.34375 -83.378906 35.628906 -86.007812 34.203125 -87.53125 C 32.773438 -89.0625 30.78125 -89.828125 28.21875 -89.828125 C 25.65625 -89.828125 23.660156 -89.0625 22.234375 -87.53125 C 20.804688 -86.007812 20.09375 -83.378906 20.09375 -79.640625 C 20.09375 -76.085938 20.878906 -72.957031 22.453125 -70.25 C 24.035156 -67.539062 26.003906 -64.976562 28.359375 -62.5625 C 30.722656 -60.15625 33.257812 -57.742188 35.96875 -55.328125 C 38.6875 -52.921875 41.222656 -50.285156 43.578125 -47.421875 C 45.941406 -44.566406 47.910156 -41.316406 49.484375 -37.671875 C 51.066406 -34.023438 51.859375 -29.742188 51.859375 -24.828125 C 51.859375 -16.453125 49.8125 -10.019531 45.71875 -5.53125 C 41.632812 -1.050781 35.601562 1.1875 27.625 1.1875 C 19.644531 1.1875 13.609375 -1.050781 9.515625 -5.53125 C 5.429688 -10.019531 3.390625 -16.453125 3.390625 -24.828125 L 3.390625 -31.171875 L 18.765625 -31.171875 L 18.765625 -23.78125 C 18.765625 -20.039062 19.523438 -17.429688 21.046875 -15.953125 C 22.578125 -14.472656 24.625 -13.734375 27.1875 -13.734375 C 29.75 -13.734375 31.789062 -14.472656 33.3125 -15.953125 C 34.84375 -17.429688 35.609375 -20.039062 35.609375 -23.78125 C 35.609375 -27.332031 34.816406 -30.460938 33.234375 -33.171875 C 31.660156 -35.878906 29.691406 -38.4375 27.328125 -40.84375 C 24.960938 -43.257812 22.425781 -45.675781 19.71875 -48.09375 C 17.007812 -50.507812 14.472656 -53.144531 12.109375 -56 C 9.742188 -58.851562 7.773438 -62.101562 6.203125 -65.75 C 4.628906 -69.394531 3.84375 -73.679688 3.84375 -78.609375 Z M 3.84375 -78.609375 "/></g></g></g><g fill="#faf5f0" fill-opacity="1"><g transform="translate(559.878746, 594.990632)"><g><path d="M 20.828125 -23.78125 C 20.828125 -20.039062 21.585938 -17.40625 23.109375 -15.875 C 24.640625 -14.351562 26.6875 -13.59375 29.25 -13.59375 C 31.8125 -13.59375 33.851562 -14.351562 35.375 -15.875 C 36.90625 -17.40625 37.671875 -20.039062 37.671875 -23.78125 L 37.671875 -79.640625 C 37.671875 -83.378906 36.90625 -86.007812 35.375 -87.53125 C 33.851562 -89.0625 31.8125 -89.828125 29.25 -89.828125 C 26.6875 -89.828125 24.640625 -89.0625 23.109375 -87.53125 C 21.585938 -86.007812 20.828125 -83.378906 20.828125 -79.640625 Z M 4.578125 -78.609375 C 4.578125 -86.972656 6.691406 -93.394531 10.921875 -97.875 C 15.160156 -102.363281 21.269531 -104.609375 29.25 -104.609375 C 37.226562 -104.609375 43.332031 -102.363281 47.5625 -97.875 C 51.800781 -93.394531 53.921875 -86.972656 53.921875 -78.609375 L 53.921875 -24.828125 C 53.921875 -16.453125 51.800781 -10.019531 47.5625 -5.53125 C 43.332031 -1.050781 37.226562 1.1875 29.25 1.1875 C 21.269531 1.1875 15.160156 -1.050781 10.921875 -5.53125 C 6.691406 -10.019531 4.578125 -16.453125 4.578125 -24.828125 Z M 4.578125 -78.609375 "/></g></g></g><g fill="#faf5f0" fill-opacity="1"><g transform="translate(618.387759, 594.990632)"><g><path d="M 5.90625 -103.421875 L 22.15625 -103.421875 L 22.15625 -14.78125 L 48.90625 -14.78125 L 48.90625 0 L 5.90625 0 Z M 5.90625 -103.421875 "/></g></g></g><g fill="#faf5f0" fill-opacity="1"><g transform="translate(668.47502, 594.990632)"><g><path d="M 20.828125 -23.78125 C 20.828125 -20.039062 21.585938 -17.40625 23.109375 -15.875 C 24.640625 -14.351562 26.6875 -13.59375 29.25 -13.59375 C 31.8125 -13.59375 33.851562 -14.351562 35.375 -15.875 C 36.90625 -17.40625 37.671875 -20.039062 37.671875 -23.78125 L 37.671875 -79.640625 C 37.671875 -83.378906 36.90625 -86.007812 35.375 -87.53125 C 33.851562 -89.0625 31.8125 -89.828125 29.25 -89.828125 C 26.6875 -89.828125 24.640625 -89.0625 23.109375 -87.53125 C 21.585938 -86.007812 20.828125 -83.378906 20.828125 -79.640625 Z M 4.578125 -78.609375 C 4.578125 -86.972656 6.691406 -93.394531 10.921875 -97.875 C 15.160156 -102.363281 21.269531 -104.609375 29.25 -104.609375 C 37.226562 -104.609375 43.332031 -102.363281 47.5625 -97.875 C 51.800781 -93.394531 53.921875 -86.972656 53.921875 -78.609375 L 53.921875 -24.828125 C 53.921875 -16.453125 51.800781 -10.019531 47.5625 -5.53125 C 43.332031 -1.050781 37.226562 1.1875 29.25 1.1875 C 21.269531 1.1875 15.160156 -1.050781 10.921875 -5.53125 C 6.691406 -10.019531 4.578125 -16.453125 4.578125 -24.828125 Z M 4.578125 -78.609375 "/></g></g></g><g fill="#faf5f0" fill-opacity="1"><g transform="translate(61.964024, 723.24062)"><g><path d="M 4.578125 -78.609375 C 4.578125 -86.972656 6.691406 -93.394531 10.921875 -97.875 C 15.160156 -102.363281 21.269531 -104.609375 29.25 -104.609375 C 37.226562 -104.609375 43.332031 -102.363281 47.5625 -97.875 C 51.800781 -93.394531 53.921875 -86.972656 53.921875 -78.609375 L 53.921875 -24.828125 C 53.921875 -19.015625 52.890625 -14.1875 50.828125 -10.34375 C 51.222656 -9.351562 51.738281 -8.734375 52.375 -8.484375 C 53.019531 -8.242188 54.03125 -8.125 55.40625 -8.125 L 56.890625 -8.125 L 56.890625 6.359375 L 54.671875 6.359375 C 51.023438 6.359375 48.039062 5.738281 45.71875 4.5 C 43.40625 3.269531 41.707031 1.523438 40.625 -0.734375 C 38.957031 -0.148438 37.1875 0.3125 35.3125 0.65625 C 33.4375 1.007812 31.414062 1.1875 29.25 1.1875 C 21.269531 1.1875 15.160156 -1.050781 10.921875 -5.53125 C 6.691406 -10.019531 4.578125 -16.453125 4.578125 -24.828125 Z M 20.828125 -23.78125 C 20.828125 -20.039062 21.585938 -17.40625 23.109375 -15.875 C 24.640625 -14.351562 26.6875 -13.59375 29.25 -13.59375 C 31.8125 -13.59375 33.851562 -14.351562 35.375 -15.875 C 36.90625 -17.40625 37.671875 -20.039062 37.671875 -23.78125 L 37.671875 -79.640625 C 37.671875 -83.378906 36.90625 -86.007812 35.375 -87.53125 C 33.851562 -89.0625 31.8125 -89.828125 29.25 -89.828125 C 26.6875 -89.828125 24.640625 -89.0625 23.109375 -87.53125 C 21.585938 -86.007812 20.828125 -83.378906 20.828125 -79.640625 Z M 20.828125 -23.78125 "/></g></g></g><g fill="#faf5f0" fill-opacity="1"><g transform="translate(120.473026, 723.24062)"><g><path d="M 21.421875 -103.421875 L 21.421875 -23.640625 C 21.421875 -19.898438 22.179688 -17.289062 23.703125 -15.8125 C 25.234375 -14.332031 27.28125 -13.59375 29.84375 -13.59375 C 32.40625 -13.59375 34.445312 -14.332031 35.96875 -15.8125 C 37.5 -17.289062 38.265625 -19.898438 38.265625 -23.640625 L 38.265625 -103.421875 L 53.640625 -103.421875 L 53.640625 -24.671875 C 53.640625 -16.296875 51.59375 -9.867188 47.5 -5.390625 C 43.414062 -0.910156 37.382812 1.328125 29.40625 1.328125 C 21.425781 1.328125 15.390625 -0.910156 11.296875 -5.390625 C 7.210938 -9.867188 5.171875 -16.296875 5.171875 -24.671875 L 5.171875 -103.421875 Z M 21.421875 -103.421875 "/></g></g></g><g fill="#faf5f0" fill-opacity="1"><g transform="translate(179.277525, 723.24062)"><g><path d="M 5.90625 -103.421875 L 22.15625 -103.421875 L 22.15625 0 L 5.90625 0 Z M 5.90625 -103.421875 "/></g></g></g><g fill="#faf5f0" fill-opacity="1"><g transform="translate(207.350029, 723.24062)"><g><path d="M 50.96875 -103.421875 L 50.96875 -88.953125 L 20.09375 -14.78125 L 50.96875 -14.78125 L 50.96875 0 L 3.390625 0 L 3.390625 -14.484375 L 34.28125 -88.65625 L 4.875 -88.65625 L 4.875 -103.421875 Z M 50.96875 -103.421875 "/></g></g></g><g fill="#faf5f0" fill-opacity="1"><g transform="translate(262.017535, 723.24062)"><g><path d="M 58.515625 0 L 42.109375 0 L 39.296875 -18.765625 L 19.359375 -18.765625 L 16.546875 0 L 1.625 0 L 18.171875 -103.421875 L 41.96875 -103.421875 Z M 21.421875 -32.796875 L 37.078125 -32.796875 L 29.25 -85.109375 Z M 47.421875 -125.296875 L 32.359375 -108.890625 L 21.421875 -108.890625 L 31.46875 -125.296875 Z M 47.421875 -125.296875 "/></g></g></g><g fill="#faf5f0" fill-opacity="1"><g transform="translate(322.151792, 723.24062)"><g><path d="M 3.84375 -78.609375 C 3.84375 -86.972656 5.835938 -93.394531 9.828125 -97.875 C 13.816406 -102.363281 19.800781 -104.609375 27.78125 -104.609375 C 35.757812 -104.609375 41.742188 -102.363281 45.734375 -97.875 C 49.722656 -93.394531 51.71875 -86.972656 51.71875 -78.609375 L 51.71875 -75.359375 L 36.34375 -75.359375 L 36.34375 -79.640625 C 36.34375 -83.378906 35.628906 -86.007812 34.203125 -87.53125 C 32.773438 -89.0625 30.78125 -89.828125 28.21875 -89.828125 C 25.65625 -89.828125 23.660156 -89.0625 22.234375 -87.53125 C 20.804688 -86.007812 20.09375 -83.378906 20.09375 -79.640625 C 20.09375 -76.085938 20.878906 -72.957031 22.453125 -70.25 C 24.035156 -67.539062 26.003906 -64.976562 28.359375 -62.5625 C 30.722656 -60.15625 33.257812 -57.742188 35.96875 -55.328125 C 38.6875 -52.921875 41.222656 -50.285156 43.578125 -47.421875 C 45.941406 -44.566406 47.910156 -41.316406 49.484375 -37.671875 C 51.066406 -34.023438 51.859375 -29.742188 51.859375 -24.828125 C 51.859375 -16.453125 49.8125 -10.019531 45.71875 -5.53125 C 41.632812 -1.050781 35.601562 1.1875 27.625 1.1875 C 19.644531 1.1875 13.609375 -1.050781 9.515625 -5.53125 C 5.429688 -10.019531 3.390625 -16.453125 3.390625 -24.828125 L 3.390625 -31.171875 L 18.765625 -31.171875 L 18.765625 -23.78125 C 18.765625 -20.039062 19.523438 -17.429688 21.046875 -15.953125 C 22.578125 -14.472656 24.625 -13.734375 27.1875 -13.734375 C 29.75 -13.734375 31.789062 -14.472656 33.3125 -15.953125 C 34.84375 -17.429688 35.609375 -20.039062 35.609375 -23.78125 C 35.609375 -27.332031 34.816406 -30.460938 33.234375 -33.171875 C 31.660156 -35.878906 29.691406 -38.4375 27.328125 -40.84375 C 24.960938 -43.257812 22.425781 -45.675781 19.71875 -48.09375 C 17.007812 -50.507812 14.472656 -53.144531 12.109375 -56 C 9.742188 -58.851562 7.773438 -62.101562 6.203125 -65.75 C 4.628906 -69.394531 3.84375 -73.679688 3.84375 -78.609375 Z M 3.84375 -78.609375 "/></g></g></g><g fill="#faf5f0" fill-opacity="1"><g transform="translate(377.410294, 723.24062)"><g/></g></g><g fill="#faf5f0" fill-opacity="1"><g transform="translate(400.311545, 723.24062)"><g><path d="M 5.90625 -103.421875 L 31.625 -103.421875 C 39.789062 -103.421875 45.867188 -101.253906 49.859375 -96.921875 C 53.847656 -92.585938 55.84375 -86.234375 55.84375 -77.859375 L 55.84375 -25.5625 C 55.84375 -17.1875 53.847656 -10.832031 49.859375 -6.5 C 45.867188 -2.164062 39.789062 0 31.625 0 L 5.90625 0 Z M 22.15625 -88.65625 L 22.15625 -14.78125 L 31.328125 -14.78125 C 33.890625 -14.78125 35.90625 -15.515625 37.375 -16.984375 C 38.851562 -18.460938 39.59375 -21.078125 39.59375 -24.828125 L 39.59375 -78.609375 C 39.59375 -82.347656 38.851562 -84.957031 37.375 -86.4375 C 35.90625 -87.914062 33.890625 -88.65625 31.328125 -88.65625 Z M 22.15625 -88.65625 "/></g></g></g><g fill="#faf5f0" fill-opacity="1"><g transform="translate(460.593568, 723.24062)"><g><path d="M 22.15625 -59.84375 L 44.46875 -59.84375 L 44.46875 -45.0625 L 22.15625 -45.0625 L 22.15625 -14.78125 L 50.234375 -14.78125 L 50.234375 0 L 5.90625 0 L 5.90625 -103.421875 L 50.234375 -103.421875 L 50.234375 -88.65625 L 22.15625 -88.65625 Z M 22.15625 -59.84375 "/></g></g></g><g fill="#faf5f0" fill-opacity="1"><g transform="translate(514.965588, 723.24062)"><g><path d="M 30.4375 -103.421875 C 38.90625 -103.421875 45.035156 -101.453125 48.828125 -97.515625 C 52.617188 -93.578125 54.515625 -87.617188 54.515625 -79.640625 L 54.515625 -75.9375 C 54.515625 -70.625 53.675781 -66.242188 52 -62.796875 C 50.332031 -59.347656 47.675781 -56.785156 44.03125 -55.109375 C 48.457031 -53.429688 51.582031 -50.695312 53.40625 -46.90625 C 55.226562 -43.113281 56.140625 -38.460938 56.140625 -32.953125 L 56.140625 -24.53125 C 56.140625 -16.550781 54.070312 -10.46875 49.9375 -6.28125 C 45.800781 -2.09375 39.644531 0 31.46875 0 L 5.90625 0 L 5.90625 -103.421875 Z M 22.15625 -46.546875 L 22.15625 -14.78125 L 31.46875 -14.78125 C 34.226562 -14.78125 36.320312 -15.515625 37.75 -16.984375 C 39.175781 -18.460938 39.890625 -21.125 39.890625 -24.96875 L 39.890625 -33.984375 C 39.890625 -38.804688 39.078125 -42.101562 37.453125 -43.875 C 35.828125 -45.65625 33.144531 -46.546875 29.40625 -46.546875 Z M 22.15625 -88.65625 L 22.15625 -61.3125 L 28.515625 -61.3125 C 31.566406 -61.3125 33.953125 -62.097656 35.671875 -63.671875 C 37.398438 -65.253906 38.265625 -68.113281 38.265625 -72.25 L 38.265625 -78.015625 C 38.265625 -81.753906 37.597656 -84.460938 36.265625 -86.140625 C 34.941406 -87.816406 32.851562 -88.65625 30 -88.65625 Z M 22.15625 -88.65625 "/></g></g></g><g fill="#faf5f0" fill-opacity="1"><g transform="translate(574.952079, 723.24062)"><g><path d="M 58.515625 0 L 42.109375 0 L 39.296875 -18.765625 L 19.359375 -18.765625 L 16.546875 0 L 1.625 0 L 18.171875 -103.421875 L 41.96875 -103.421875 Z M 21.421875 -32.796875 L 37.078125 -32.796875 L 29.25 -85.109375 Z M 21.421875 -32.796875 "/></g></g></g><g fill="#faf5f0" fill-opacity="1"><g transform="translate(635.086336, 723.24062)"><g><path d="M 3.84375 -78.609375 C 3.84375 -86.972656 5.835938 -93.394531 9.828125 -97.875 C 13.816406 -102.363281 19.800781 -104.609375 27.78125 -104.609375 C 35.757812 -104.609375 41.742188 -102.363281 45.734375 -97.875 C 49.722656 -93.394531 51.71875 -86.972656 51.71875 -78.609375 L 51.71875 -75.359375 L 36.34375 -75.359375 L 36.34375 -79.640625 C 36.34375 -83.378906 35.628906 -86.007812 34.203125 -87.53125 C 32.773438 -89.0625 30.78125 -89.828125 28.21875 -89.828125 C 25.65625 -89.828125 23.660156 -89.0625 22.234375 -87.53125 C 20.804688 -86.007812 20.09375 -83.378906 20.09375 -79.640625 C 20.09375 -76.085938 20.878906 -72.957031 22.453125 -70.25 C 24.035156 -67.539062 26.003906 -64.976562 28.359375 -62.5625 C 30.722656 -60.15625 33.257812 -57.742188 35.96875 -55.328125 C 38.6875 -52.921875 41.222656 -50.285156 43.578125 -47.421875 C 45.941406 -44.566406 47.910156 -41.316406 49.484375 -37.671875 C 51.066406 -34.023438 51.859375 -29.742188 51.859375 -24.828125 C 51.859375 -16.453125 49.8125 -10.019531 45.71875 -5.53125 C 41.632812 -1.050781 35.601562 1.1875 27.625 1.1875 C 19.644531 1.1875 13.609375 -1.050781 9.515625 -5.53125 C 5.429688 -10.019531 3.390625 -16.453125 3.390625 -24.828125 L 3.390625 -31.171875 L 18.765625 -31.171875 L 18.765625 -23.78125 C 18.765625 -20.039062 19.523438 -17.429688 21.046875 -15.953125 C 22.578125 -14.472656 24.625 -13.734375 27.1875 -13.734375 C 29.75 -13.734375 31.789062 -14.472656 33.3125 -15.953125 C 34.84375 -17.429688 35.609375 -20.039062 35.609375 -23.78125 C 35.609375 -27.332031 34.816406 -30.460938 33.234375 -33.171875 C 31.660156 -35.878906 29.691406 -38.4375 27.328125 -40.84375 C 24.960938 -43.257812 22.425781 -45.675781 19.71875 -48.09375 C 17.007812 -50.507812 14.472656 -53.144531 12.109375 -56 C 9.742188 -58.851562 7.773438 -62.101562 6.203125 -65.75 C 4.628906 -69.394531 3.84375 -73.679688 3.84375 -78.609375 Z M 3.84375 -78.609375 "/></g></g></g><g fill="#faf5f0" fill-opacity="1"><g transform="translate(61.964024, 851.490609)"><g><path d="M 53.046875 -38.5625 L 53.046875 -24.828125 C 53.046875 -16.453125 51 -10.019531 46.90625 -5.53125 C 42.820312 -1.050781 36.789062 1.1875 28.8125 1.1875 C 20.832031 1.1875 14.796875 -1.050781 10.703125 -5.53125 C 6.617188 -10.019531 4.578125 -16.453125 4.578125 -24.828125 L 4.578125 -78.609375 C 4.578125 -86.972656 6.617188 -93.394531 10.703125 -97.875 C 14.796875 -102.363281 20.832031 -104.609375 28.8125 -104.609375 C 36.789062 -104.609375 42.820312 -102.363281 46.90625 -97.875 C 51 -93.394531 53.046875 -86.972656 53.046875 -78.609375 L 53.046875 -68.5625 L 37.671875 -68.5625 L 37.671875 -79.640625 C 37.671875 -83.378906 36.90625 -86.007812 35.375 -87.53125 C 33.851562 -89.0625 31.8125 -89.828125 29.25 -89.828125 C 26.6875 -89.828125 24.640625 -89.0625 23.109375 -87.53125 C 21.585938 -86.007812 20.828125 -83.378906 20.828125 -79.640625 L 20.828125 -23.78125 C 20.828125 -20.039062 21.585938 -17.429688 23.109375 -15.953125 C 24.640625 -14.472656 26.6875 -13.734375 29.25 -13.734375 C 31.8125 -13.734375 33.851562 -14.472656 35.375 -15.953125 C 36.90625 -17.429688 37.671875 -20.039062 37.671875 -23.78125 L 37.671875 -38.5625 Z M 53.046875 -38.5625 "/></g></g></g><g fill="#faf5f0" fill-opacity="1"><g transform="translate(118.995524, 851.490609)"><g><path d="M 20.828125 -23.78125 C 20.828125 -20.039062 21.585938 -17.40625 23.109375 -15.875 C 24.640625 -14.351562 26.6875 -13.59375 29.25 -13.59375 C 31.8125 -13.59375 33.851562 -14.351562 35.375 -15.875 C 36.90625 -17.40625 37.671875 -20.039062 37.671875 -23.78125 L 37.671875 -79.640625 C 37.671875 -83.378906 36.90625 -86.007812 35.375 -87.53125 C 33.851562 -89.0625 31.8125 -89.828125 29.25 -89.828125 C 26.6875 -89.828125 24.640625 -89.0625 23.109375 -87.53125 C 21.585938 -86.007812 20.828125 -83.378906 20.828125 -79.640625 Z M 4.578125 -78.609375 C 4.578125 -86.972656 6.691406 -93.394531 10.921875 -97.875 C 15.160156 -102.363281 21.269531 -104.609375 29.25 -104.609375 C 37.226562 -104.609375 43.332031 -102.363281 47.5625 -97.875 C 51.800781 -93.394531 53.921875 -86.972656 53.921875 -78.609375 L 53.921875 -24.828125 C 53.921875 -16.453125 51.800781 -10.019531 47.5625 -5.53125 C 43.332031 -1.050781 37.226562 1.1875 29.25 1.1875 C 21.269531 1.1875 15.160156 -1.050781 10.921875 -5.53125 C 6.691406 -10.019531 4.578125 -16.453125 4.578125 -24.828125 Z M 4.578125 -78.609375 "/></g></g></g><g fill="#faf5f0" fill-opacity="1"><g transform="translate(177.504526, 851.490609)"><g><path d="M 20.390625 -74.90625 L 20.390625 0 L 5.765625 0 L 5.765625 -103.421875 L 26.15625 -103.421875 L 42.84375 -41.515625 L 42.84375 -103.421875 L 57.328125 -103.421875 L 57.328125 0 L 40.625 0 Z M 20.390625 -74.90625 "/></g></g></g><g fill="#faf5f0" fill-opacity="1"><g transform="translate(240.593785, 851.490609)"><g><path d="M 1.1875 -103.421875 L 51.421875 -103.421875 L 51.421875 -88.65625 L 34.421875 -88.65625 L 34.421875 0 L 18.171875 0 L 18.171875 -88.65625 L 1.1875 -88.65625 Z M 1.1875 -103.421875 "/></g></g></g><g fill="#faf5f0" fill-opacity="1"><g transform="translate(293.192795, 851.490609)"><g><path d="M 39.890625 0 C 39.691406 -0.6875 39.492188 -1.328125 39.296875 -1.921875 C 39.097656 -2.515625 38.925781 -3.253906 38.78125 -4.140625 C 38.632812 -5.023438 38.535156 -6.15625 38.484375 -7.53125 C 38.441406 -8.914062 38.421875 -10.640625 38.421875 -12.703125 L 38.421875 -28.953125 C 38.421875 -33.785156 37.582031 -37.1875 35.90625 -39.15625 C 34.226562 -41.125 31.519531 -42.109375 27.78125 -42.109375 L 22.15625 -42.109375 L 22.15625 0 L 5.90625 0 L 5.90625 -103.421875 L 30.4375 -103.421875 C 38.90625 -103.421875 45.035156 -101.453125 48.828125 -97.515625 C 52.617188 -93.578125 54.515625 -87.617188 54.515625 -79.640625 L 54.515625 -71.515625 C 54.515625 -60.867188 50.96875 -53.875 43.875 -50.53125 C 48.019531 -48.851562 50.851562 -46.117188 52.375 -42.328125 C 53.90625 -38.535156 54.671875 -33.929688 54.671875 -28.515625 L 54.671875 -12.5625 C 54.671875 -10 54.769531 -7.753906 54.96875 -5.828125 C 55.164062 -3.910156 55.65625 -1.96875 56.4375 0 Z M 22.15625 -88.65625 L 22.15625 -56.890625 L 28.515625 -56.890625 C 31.566406 -56.890625 33.953125 -57.675781 35.671875 -59.25 C 37.398438 -60.820312 38.265625 -63.675781 38.265625 -67.8125 L 38.265625 -78.015625 C 38.265625 -81.753906 37.597656 -84.460938 36.265625 -86.140625 C 34.941406 -87.816406 32.851562 -88.65625 30 -88.65625 Z M 22.15625 -88.65625 "/></g></g></g><g fill="#faf5f0" fill-opacity="1"><g transform="translate(352.588313, 851.490609)"><g><path d="M 58.515625 0 L 42.109375 0 L 39.296875 -18.765625 L 19.359375 -18.765625 L 16.546875 0 L 1.625 0 L 18.171875 -103.421875 L 41.96875 -103.421875 Z M 21.421875 -32.796875 L 37.078125 -32.796875 L 29.25 -85.109375 Z M 21.421875 -32.796875 "/></g></g></g><g fill="#faf5f0" fill-opacity="1"><g transform="translate(412.722569, 851.490609)"><g><path d="M 1.1875 -103.421875 L 51.421875 -103.421875 L 51.421875 -88.65625 L 34.421875 -88.65625 L 34.421875 0 L 18.171875 0 L 18.171875 -88.65625 L 1.1875 -88.65625 Z M 1.1875 -103.421875 "/></g></g></g><g fill="#faf5f0" fill-opacity="1"><g transform="translate(465.321579, 851.490609)"><g><path d="M 58.515625 0 L 42.109375 0 L 39.296875 -18.765625 L 19.359375 -18.765625 L 16.546875 0 L 1.625 0 L 18.171875 -103.421875 L 41.96875 -103.421875 Z M 21.421875 -32.796875 L 37.078125 -32.796875 L 29.25 -85.109375 Z M 21.421875 -32.796875 "/></g></g></g><g fill="#faf5f0" fill-opacity="1"><g transform="translate(525.455836, 851.490609)"><g><path d="M 39.890625 0 C 39.691406 -0.6875 39.492188 -1.328125 39.296875 -1.921875 C 39.097656 -2.515625 38.925781 -3.253906 38.78125 -4.140625 C 38.632812 -5.023438 38.535156 -6.15625 38.484375 -7.53125 C 38.441406 -8.914062 38.421875 -10.640625 38.421875 -12.703125 L 38.421875 -28.953125 C 38.421875 -33.785156 37.582031 -37.1875 35.90625 -39.15625 C 34.226562 -41.125 31.519531 -42.109375 27.78125 -42.109375 L 22.15625 -42.109375 L 22.15625 0 L 5.90625 0 L 5.90625 -103.421875 L 30.4375 -103.421875 C 38.90625 -103.421875 45.035156 -101.453125 48.828125 -97.515625 C 52.617188 -93.578125 54.515625 -87.617188 54.515625 -79.640625 L 54.515625 -71.515625 C 54.515625 -60.867188 50.96875 -53.875 43.875 -50.53125 C 48.019531 -48.851562 50.851562 -46.117188 52.375 -42.328125 C 53.90625 -38.535156 54.671875 -33.929688 54.671875 -28.515625 L 54.671875 -12.5625 C 54.671875 -10 54.769531 -7.753906 54.96875 -5.828125 C 55.164062 -3.910156 55.65625 -1.96875 56.4375 0 Z M 22.15625 -88.65625 L 22.15625 -56.890625 L 28.515625 -56.890625 C 31.566406 -56.890625 33.953125 -57.675781 35.671875 -59.25 C 37.398438 -60.820312 38.265625 -63.675781 38.265625 -67.8125 L 38.265625 -78.015625 C 38.265625 -81.753906 37.597656 -84.460938 36.265625 -86.140625 C 34.941406 -87.816406 32.851562 -88.65625 30 -88.65625 Z M 22.15625 -88.65625 "/></g></g></g><g fill="#faf5f0" fill-opacity="1"><g transform="translate(584.851354, 851.490609)"><g><path d="M 40.328125 -30 L 51.421875 -103.421875 L 74.015625 -103.421875 L 74.015625 0 L 58.65625 0 L 58.65625 -74.171875 L 47.421875 0 L 32.0625 0 L 19.953125 -73.140625 L 19.953125 0 L 5.765625 0 L 5.765625 -103.421875 L 28.375 -103.421875 Z M 40.328125 -30 "/></g></g></g><g fill="#faf5f0" fill-opacity="1"><g transform="translate(664.784117, 851.490609)"><g><path d="M 22.15625 -59.84375 L 44.46875 -59.84375 L 44.46875 -45.0625 L 22.15625 -45.0625 L 22.15625 -14.78125 L 50.234375 -14.78125 L 50.234375 0 L 5.90625 0 L 5.90625 -103.421875 L 50.234375 -103.421875 L 50.234375 -88.65625 L 22.15625 -88.65625 Z M 22.15625 -59.84375 "/></g></g></g><g fill="#faf5f0" fill-opacity="1"><g transform="translate(719.156137, 851.490609)"><g><path d="M 21.578125 -15.65625 L 21.578125 0 L 5.90625 0 L 5.90625 -15.65625 Z M 21.578125 -15.65625 "/></g></g></g><g fill="#faf5f0" fill-opacity="1"><g transform="translate(61.964024, 1107.990587)"><g><path d="M 1.1875 -103.421875 L 51.421875 -103.421875 L 51.421875 -88.65625 L 34.421875 -88.65625 L 34.421875 0 L 18.171875 0 L 18.171875 -88.65625 L 1.1875 -88.65625 Z M 1.1875 -103.421875 "/></g></g></g><g fill="#faf5f0" fill-opacity="1"><g transform="translate(114.563023, 1107.990587)"><g><path d="M 58.515625 0 L 42.109375 0 L 39.296875 -18.765625 L 19.359375 -18.765625 L 16.546875 0 L 1.625 0 L 18.171875 -103.421875 L 41.96875 -103.421875 Z M 21.421875 -32.796875 L 37.078125 -32.796875 L 29.25 -85.109375 Z M 21.421875 -32.796875 "/></g></g></g><g fill="#faf5f0" fill-opacity="1"><g transform="translate(174.697279, 1107.990587)"><g><path d="M 39.890625 0 C 39.691406 -0.6875 39.492188 -1.328125 39.296875 -1.921875 C 39.097656 -2.515625 38.925781 -3.253906 38.78125 -4.140625 C 38.632812 -5.023438 38.535156 -6.15625 38.484375 -7.53125 C 38.441406 -8.914062 38.421875 -10.640625 38.421875 -12.703125 L 38.421875 -28.953125 C 38.421875 -33.785156 37.582031 -37.1875 35.90625 -39.15625 C 34.226562 -41.125 31.519531 -42.109375 27.78125 -42.109375 L 22.15625 -42.109375 L 22.15625 0 L 5.90625 0 L 5.90625 -103.421875 L 30.4375 -103.421875 C 38.90625 -103.421875 45.035156 -101.453125 48.828125 -97.515625 C 52.617188 -93.578125 54.515625 -87.617188 54.515625 -79.640625 L 54.515625 -71.515625 C 54.515625 -60.867188 50.96875 -53.875 43.875 -50.53125 C 48.019531 -48.851562 50.851562 -46.117188 52.375 -42.328125 C 53.90625 -38.535156 54.671875 -33.929688 54.671875 -28.515625 L 54.671875 -12.5625 C 54.671875 -10 54.769531 -7.753906 54.96875 -5.828125 C 55.164062 -3.910156 55.65625 -1.96875 56.4375 0 Z M 22.15625 -88.65625 L 22.15625 -56.890625 L 28.515625 -56.890625 C 31.566406 -56.890625 33.953125 -57.675781 35.671875 -59.25 C 37.398438 -60.820312 38.265625 -63.675781 38.265625 -67.8125 L 38.265625 -78.015625 C 38.265625 -81.753906 37.597656 -84.460938 36.265625 -86.140625 C 34.941406 -87.816406 32.851562 -88.65625 30 -88.65625 Z M 22.15625 -88.65625 "/></g></g></g><g fill="#faf5f0" fill-opacity="1"><g transform="translate(234.092786, 1107.990587)"><g><path d="M 5.90625 -103.421875 L 22.15625 -103.421875 L 22.15625 0 L 5.90625 0 Z M 5.90625 -103.421875 "/></g></g></g><g fill="#faf5f0" fill-opacity="1"><g transform="translate(262.165301, 1107.990587)"><g><path d="M 22.15625 -57.46875 L 43.140625 -57.46875 L 43.140625 -42.703125 L 22.15625 -42.703125 L 22.15625 0 L 5.90625 0 L 5.90625 -103.421875 L 48.90625 -103.421875 L 48.90625 -88.65625 L 22.15625 -88.65625 Z M 22.15625 -57.46875 "/></g></g></g><g fill="#faf5f0" fill-opacity="1"><g transform="translate(312.9913, 1107.990587)"><g><path d="M 58.515625 0 L 42.109375 0 L 39.296875 -18.765625 L 19.359375 -18.765625 L 16.546875 0 L 1.625 0 L 18.171875 -103.421875 L 41.96875 -103.421875 Z M 21.421875 -32.796875 L 37.078125 -32.796875 L 29.25 -85.109375 Z M 21.421875 -32.796875 "/></g></g></g><g fill="#faf5f0" fill-opacity="1"><g transform="translate(373.125557, 1107.990587)"><g><path d="M 3.84375 -78.609375 C 3.84375 -86.972656 5.835938 -93.394531 9.828125 -97.875 C 13.816406 -102.363281 19.800781 -104.609375 27.78125 -104.609375 C 35.757812 -104.609375 41.742188 -102.363281 45.734375 -97.875 C 49.722656 -93.394531 51.71875 -86.972656 51.71875 -78.609375 L 51.71875 -75.359375 L 36.34375 -75.359375 L 36.34375 -79.640625 C 36.34375 -83.378906 35.628906 -86.007812 34.203125 -87.53125 C 32.773438 -89.0625 30.78125 -89.828125 28.21875 -89.828125 C 25.65625 -89.828125 23.660156 -89.0625 22.234375 -87.53125 C 20.804688 -86.007812 20.09375 -83.378906 20.09375 -79.640625 C 20.09375 -76.085938 20.878906 -72.957031 22.453125 -70.25 C 24.035156 -67.539062 26.003906 -64.976562 28.359375 -62.5625 C 30.722656 -60.15625 33.257812 -57.742188 35.96875 -55.328125 C 38.6875 -52.921875 41.222656 -50.285156 43.578125 -47.421875 C 45.941406 -44.566406 47.910156 -41.316406 49.484375 -37.671875 C 51.066406 -34.023438 51.859375 -29.742188 51.859375 -24.828125 C 51.859375 -16.453125 49.8125 -10.019531 45.71875 -5.53125 C 41.632812 -1.050781 35.601562 1.1875 27.625 1.1875 C 19.644531 1.1875 13.609375 -1.050781 9.515625 -5.53125 C 5.429688 -10.019531 3.390625 -16.453125 3.390625 -24.828125 L 3.390625 -31.171875 L 18.765625 -31.171875 L 18.765625 -23.78125 C 18.765625 -20.039062 19.523438 -17.429688 21.046875 -15.953125 C 22.578125 -14.472656 24.625 -13.734375 27.1875 -13.734375 C 29.75 -13.734375 31.789062 -14.472656 33.3125 -15.953125 C 34.84375 -17.429688 35.609375 -20.039062 35.609375 -23.78125 C 35.609375 -27.332031 34.816406 -30.460938 33.234375 -33.171875 C 31.660156 -35.878906 29.691406 -38.4375 27.328125 -40.84375 C 24.960938 -43.257812 22.425781 -45.675781 19.71875 -48.09375 C 17.007812 -50.507812 14.472656 -53.144531 12.109375 -56 C 9.742188 -58.851562 7.773438 -62.101562 6.203125 -65.75 C 4.628906 -69.394531 3.84375 -73.679688 3.84375 -78.609375 Z M 3.84375 -78.609375 "/></g></g></g><g fill="#faf5f0" fill-opacity="1"><g transform="translate(428.384059, 1107.990587)"><g/></g></g><g fill="#faf5f0" fill-opacity="1"><g transform="translate(451.28531, 1107.990587)"><g><path d="M 38.125 -78.015625 C 38.125 -82.640625 37.359375 -85.765625 35.828125 -87.390625 C 34.304688 -89.015625 32.265625 -89.828125 29.703125 -89.828125 C 27.140625 -89.828125 25.09375 -89.0625 23.5625 -87.53125 C 22.039062 -86.007812 21.28125 -83.378906 21.28125 -79.640625 L 21.28125 -68.5625 L 5.90625 -68.5625 L 5.90625 -78.609375 C 5.90625 -86.972656 7.945312 -93.394531 12.03125 -97.875 C 16.125 -102.363281 22.160156 -104.609375 30.140625 -104.609375 C 38.117188 -104.609375 44.148438 -102.363281 48.234375 -97.875 C 52.328125 -93.394531 54.375 -86.972656 54.375 -78.609375 C 54.375 -73.191406 53.582031 -68.289062 52 -63.90625 C 50.425781 -59.519531 48.429688 -55.53125 46.015625 -51.9375 C 43.609375 -48.34375 41 -45.015625 38.1875 -41.953125 C 35.382812 -38.898438 32.773438 -35.992188 30.359375 -33.234375 C 27.953125 -30.484375 25.957031 -27.800781 24.375 -25.1875 C 22.800781 -22.582031 22.015625 -19.847656 22.015625 -16.984375 C 22.015625 -16.003906 22.0625 -15.269531 22.15625 -14.78125 L 52.890625 -14.78125 L 52.890625 0 L 5.90625 0 L 5.90625 -12.703125 C 5.90625 -17.722656 6.691406 -22.15625 8.265625 -26 C 9.847656 -29.84375 11.84375 -33.363281 14.25 -36.5625 C 16.664062 -39.769531 19.253906 -42.773438 22.015625 -45.578125 C 24.773438 -48.390625 27.359375 -51.367188 29.765625 -54.515625 C 32.179688 -57.671875 34.175781 -61.117188 35.75 -64.859375 C 37.332031 -68.609375 38.125 -72.992188 38.125 -78.015625 Z M 38.125 -78.015625 "/></g></g></g><g fill="#faf5f0" fill-opacity="1"><g transform="translate(509.794323, 1107.990587)"><g><path d="M 20.828125 -23.78125 C 20.828125 -20.039062 21.585938 -17.40625 23.109375 -15.875 C 24.640625 -14.351562 26.6875 -13.59375 29.25 -13.59375 C 31.8125 -13.59375 33.851562 -14.351562 35.375 -15.875 C 36.90625 -17.40625 37.671875 -20.039062 37.671875 -23.78125 L 37.671875 -79.640625 C 37.671875 -83.378906 36.90625 -86.007812 35.375 -87.53125 C 33.851562 -89.0625 31.8125 -89.828125 29.25 -89.828125 C 26.6875 -89.828125 24.640625 -89.0625 23.109375 -87.53125 C 21.585938 -86.007812 20.828125 -83.378906 20.828125 -79.640625 Z M 4.578125 -78.609375 C 4.578125 -86.972656 6.691406 -93.394531 10.921875 -97.875 C 15.160156 -102.363281 21.269531 -104.609375 29.25 -104.609375 C 37.226562 -104.609375 43.332031 -102.363281 47.5625 -97.875 C 51.800781 -93.394531 53.921875 -86.972656 53.921875 -78.609375 L 53.921875 -24.828125 C 53.921875 -16.453125 51.800781 -10.019531 47.5625 -5.53125 C 43.332031 -1.050781 37.226562 1.1875 29.25 1.1875 C 21.269531 1.1875 15.160156 -1.050781 10.921875 -5.53125 C 6.691406 -10.019531 4.578125 -16.453125 4.578125 -24.828125 Z M 4.578125 -78.609375 "/></g></g></g><g fill="#faf5f0" fill-opacity="1"><g transform="translate(568.303336, 1107.990587)"><g><path d="M 38.125 -78.015625 C 38.125 -82.640625 37.359375 -85.765625 35.828125 -87.390625 C 34.304688 -89.015625 32.265625 -89.828125 29.703125 -89.828125 C 27.140625 -89.828125 25.09375 -89.0625 23.5625 -87.53125 C 22.039062 -86.007812 21.28125 -83.378906 21.28125 -79.640625 L 21.28125 -68.5625 L 5.90625 -68.5625 L 5.90625 -78.609375 C 5.90625 -86.972656 7.945312 -93.394531 12.03125 -97.875 C 16.125 -102.363281 22.160156 -104.609375 30.140625 -104.609375 C 38.117188 -104.609375 44.148438 -102.363281 48.234375 -97.875 C 52.328125 -93.394531 54.375 -86.972656 54.375 -78.609375 C 54.375 -73.191406 53.582031 -68.289062 52 -63.90625 C 50.425781 -59.519531 48.429688 -55.53125 46.015625 -51.9375 C 43.609375 -48.34375 41 -45.015625 38.1875 -41.953125 C 35.382812 -38.898438 32.773438 -35.992188 30.359375 -33.234375 C 27.953125 -30.484375 25.957031 -27.800781 24.375 -25.1875 C 22.800781 -22.582031 22.015625 -19.847656 22.015625 -16.984375 C 22.015625 -16.003906 22.0625 -15.269531 22.15625 -14.78125 L 52.890625 -14.78125 L 52.890625 0 L 5.90625 0 L 5.90625 -12.703125 C 5.90625 -17.722656 6.691406 -22.15625 8.265625 -26 C 9.847656 -29.84375 11.84375 -33.363281 14.25 -36.5625 C 16.664062 -39.769531 19.253906 -42.773438 22.015625 -45.578125 C 24.773438 -48.390625 27.359375 -51.367188 29.765625 -54.515625 C 32.179688 -57.671875 34.175781 -61.117188 35.75 -64.859375 C 37.332031 -68.609375 38.125 -72.992188 38.125 -78.015625 Z M 38.125 -78.015625 "/></g></g></g><g fill="#faf5f0" fill-opacity="1"><g transform="translate(626.812349, 1107.990587)"><g><path d="M 37.234375 -78.015625 C 37.234375 -82.640625 36.46875 -85.765625 34.9375 -87.390625 C 33.414062 -89.015625 31.375 -89.828125 28.8125 -89.828125 C 26.25 -89.828125 24.203125 -89.0625 22.671875 -87.53125 C 21.148438 -86.007812 20.390625 -83.378906 20.390625 -79.640625 L 20.390625 -72.984375 L 5.03125 -72.984375 L 5.03125 -78.609375 C 5.03125 -86.972656 7.070312 -93.394531 11.15625 -97.875 C 15.238281 -102.363281 21.269531 -104.609375 29.25 -104.609375 C 37.226562 -104.609375 43.257812 -102.363281 47.34375 -97.875 C 51.4375 -93.394531 53.484375 -86.972656 53.484375 -78.609375 L 53.484375 -75.9375 C 53.484375 -64.90625 49.691406 -57.816406 42.109375 -54.671875 C 46.242188 -52.898438 49.171875 -50.164062 50.890625 -46.46875 C 52.617188 -42.769531 53.484375 -38.265625 53.484375 -32.953125 L 53.484375 -24.828125 C 53.484375 -16.453125 51.4375 -10.019531 47.34375 -5.53125 C 43.257812 -1.050781 37.226562 1.1875 29.25 1.1875 C 21.269531 1.1875 15.238281 -1.050781 11.15625 -5.53125 C 7.070312 -10.019531 5.03125 -16.453125 5.03125 -24.828125 L 5.03125 -33.390625 L 20.390625 -33.390625 L 20.390625 -23.78125 C 20.390625 -20.039062 21.148438 -17.40625 22.671875 -15.875 C 24.203125 -14.351562 26.25 -13.59375 28.8125 -13.59375 C 31.375 -13.59375 33.414062 -14.378906 34.9375 -15.953125 C 36.46875 -17.535156 37.234375 -20.640625 37.234375 -25.265625 L 37.234375 -33.390625 C 37.234375 -38.210938 36.394531 -41.609375 34.71875 -43.578125 C 33.039062 -45.554688 30.332031 -46.546875 26.59375 -46.546875 L 21.125 -46.546875 L 21.125 -61.3125 L 27.484375 -61.3125 C 30.535156 -61.3125 32.921875 -62.097656 34.640625 -63.671875 C 36.367188 -65.253906 37.234375 -68.113281 37.234375 -72.25 Z M 37.234375 -78.015625 "/></g></g></g><g fill="#faf5f0" fill-opacity="1"><g transform="translate(685.321362, 1107.990587)"><g><path d="M 21.578125 -15.65625 L 21.578125 0 L 5.90625 0 L 5.90625 -15.65625 Z M 21.578125 -15.65625 "/></g></g></g><g clip-path="url(#9676c6cad9)"><path fill="#ff9900" d="M 81 136.558594 L 728.792969 136.558594 L 728.792969 159.992188 L 81 159.992188 Z M 81 136.558594 " fill-opacity="1" fill-rule="nonzero"/></g></svg>