<svg xmlns="http://www.w3.org/2000/svg" xmlns:xlink="http://www.w3.org/1999/xlink" width="1080" zoomAndPan="magnify" viewBox="0 0 810 1439.999935" height="1920" preserveAspectRatio="xMidYMid meet" version="1.0"><defs><g/><clipPath id="136453568c"><path d="M 81 1281.320312 L 729 1281.320312 L 729 1284.183594 L 81 1284.183594 Z M 81 1281.320312 " clip-rule="nonzero"/></clipPath></defs><rect x="-81" width="972" fill="#ffffff" y="-143.999994" height="1727.999922" fill-opacity="1"/><rect x="-81" width="972" fill="#ffffff" y="-143.999994" height="1727.999922" fill-opacity="1"/><rect x="-81" width="972" fill="#9e6df7" y="-143.999994" height="1727.999922" fill-opacity="1"/><g clip-path="url(#136453568c)"><path fill="#2a0076" d="M 81 1270.851562 L 728.792969 1270.851562 L 728.792969 1294.285156 L 81 1294.285156 Z M 81 1270.851562 " fill-opacity="1" fill-rule="nonzero"/></g><g fill="#ffffff" fill-opacity="1"><g transform="translate(277.023055, 410.649936)"><g><path d="M 21.765625 -8.671875 C 21.765625 -6.898438 21.3125 -5.328125 20.40625 -3.953125 C 19.507812 -2.578125 18.210938 -1.507812 16.515625 -0.75 C 14.828125 0.0078125 12.84375 0.390625 10.5625 0.390625 C 8.664062 0.390625 7.070312 0.257812 5.78125 0 C 4.488281 -0.269531 3.148438 -0.738281 1.765625 -1.40625 L 1.765625 -8.28125 C 3.234375 -7.53125 4.757812 -6.941406 6.34375 -6.515625 C 7.9375 -6.085938 9.394531 -5.875 10.71875 -5.875 C 11.863281 -5.875 12.703125 -6.070312 13.234375 -6.46875 C 13.773438 -6.875 14.046875 -7.390625 14.046875 -8.015625 C 14.046875 -8.398438 13.9375 -8.738281 13.71875 -9.03125 C 13.507812 -9.320312 13.164062 -9.617188 12.6875 -9.921875 C 12.207031 -10.222656 10.941406 -10.835938 8.890625 -11.765625 C 7.023438 -12.609375 5.625 -13.425781 4.6875 -14.21875 C 3.757812 -15.007812 3.070312 -15.921875 2.625 -16.953125 C 2.175781 -17.984375 1.953125 -19.203125 1.953125 -20.609375 C 1.953125 -23.234375 2.910156 -25.28125 4.828125 -26.75 C 6.742188 -28.226562 9.375 -28.96875 12.71875 -28.96875 C 15.675781 -28.96875 18.691406 -28.285156 21.765625 -26.921875 L 19.390625 -20.953125 C 16.722656 -22.179688 14.421875 -22.796875 12.484375 -22.796875 C 11.484375 -22.796875 10.753906 -22.617188 10.296875 -22.265625 C 9.835938 -21.910156 9.609375 -21.472656 9.609375 -20.953125 C 9.609375 -20.398438 9.894531 -19.898438 10.46875 -19.453125 C 11.050781 -19.015625 12.628906 -18.207031 15.203125 -17.03125 C 17.660156 -15.925781 19.367188 -14.738281 20.328125 -13.46875 C 21.285156 -12.195312 21.765625 -10.597656 21.765625 -8.671875 Z M 21.765625 -8.671875 "/></g></g></g><g fill="#ffffff" fill-opacity="1"><g transform="translate(300.106736, 410.649936)"><g><path d="M 10.3125 0 L 2.671875 0 L 2.671875 -22.125 L 10.3125 -22.125 Z M 2.484375 -27.640625 C 2.484375 -28.785156 2.800781 -29.632812 3.4375 -30.1875 C 4.070312 -30.75 5.101562 -31.03125 6.53125 -31.03125 C 7.945312 -31.03125 8.976562 -30.742188 9.625 -30.171875 C 10.28125 -29.597656 10.609375 -28.753906 10.609375 -27.640625 C 10.609375 -25.398438 9.25 -24.28125 6.53125 -24.28125 C 3.832031 -24.28125 2.484375 -25.398438 2.484375 -27.640625 Z M 2.484375 -27.640625 "/></g></g></g><g fill="#ffffff" fill-opacity="1"><g transform="translate(313.113277, 410.649936)"><g/></g></g><g fill="#ffffff" fill-opacity="1"><g transform="translate(323.502887, 410.649936)"><g><path d="M 10.28125 0 L 2.640625 0 L 2.640625 -30.390625 L 10.28125 -30.390625 Z M 10.28125 0 "/></g></g></g><g fill="#ffffff" fill-opacity="1"><g transform="translate(336.431311, 410.649936)"><g><path d="M 23.765625 -11.109375 C 23.765625 -7.492188 22.789062 -4.671875 20.84375 -2.640625 C 18.90625 -0.617188 16.179688 0.390625 12.671875 0.390625 C 9.316406 0.390625 6.644531 -0.644531 4.65625 -2.71875 C 2.675781 -4.789062 1.6875 -7.585938 1.6875 -11.109375 C 1.6875 -14.722656 2.65625 -17.523438 4.59375 -19.515625 C 6.539062 -21.515625 9.273438 -22.515625 12.796875 -22.515625 C 14.972656 -22.515625 16.894531 -22.050781 18.5625 -21.125 C 20.226562 -20.207031 21.507812 -18.882812 22.40625 -17.15625 C 23.3125 -15.4375 23.765625 -13.421875 23.765625 -11.109375 Z M 9.4375 -11.109375 C 9.4375 -9.210938 9.6875 -7.765625 10.1875 -6.765625 C 10.695312 -5.773438 11.550781 -5.28125 12.75 -5.28125 C 13.9375 -5.28125 14.773438 -5.773438 15.265625 -6.765625 C 15.753906 -7.765625 16 -9.210938 16 -11.109375 C 16 -13.003906 15.75 -14.429688 15.25 -15.390625 C 14.757812 -16.359375 13.914062 -16.84375 12.71875 -16.84375 C 11.539062 -16.84375 10.695312 -16.363281 10.1875 -15.40625 C 9.6875 -14.445312 9.4375 -13.015625 9.4375 -11.109375 Z M 9.4375 -11.109375 "/></g></g></g><g fill="#ffffff" fill-opacity="1"><g transform="translate(361.917106, 410.649936)"><g/></g></g><g fill="#ffffff" fill-opacity="1"><g transform="translate(372.306716, 410.649936)"><g><path d="M 9.609375 0.390625 C 7.140625 0.390625 5.203125 -0.625 3.796875 -2.65625 C 2.390625 -4.6875 1.6875 -7.476562 1.6875 -11.03125 C 1.6875 -14.625 2.40625 -17.4375 3.84375 -19.46875 C 5.28125 -21.5 7.242188 -22.515625 9.734375 -22.515625 C 12.398438 -22.515625 14.410156 -21.472656 15.765625 -19.390625 L 15.921875 -19.390625 L 16.484375 -22.125 L 23.09375 -22.125 L 23.09375 9.609375 L 15.453125 9.609375 L 15.453125 0.453125 C 15.453125 0.00390625 15.53125 -1.078125 15.6875 -2.796875 L 15.453125 -2.796875 C 14.203125 -0.671875 12.253906 0.390625 9.609375 0.390625 Z M 12.71875 -5.53125 C 13.875 -5.53125 14.710938 -5.882812 15.234375 -6.59375 C 15.765625 -7.3125 16.03125 -8.523438 16.03125 -10.234375 L 16.03125 -11.15625 C 16.03125 -13.101562 15.765625 -14.5 15.234375 -15.34375 C 14.703125 -16.1875 13.820312 -16.609375 12.59375 -16.609375 C 10.488281 -16.609375 9.4375 -14.710938 9.4375 -10.921875 C 9.4375 -8.992188 9.703125 -7.613281 10.234375 -6.78125 C 10.765625 -5.945312 11.59375 -5.53125 12.71875 -5.53125 Z M 12.71875 -5.53125 "/></g></g></g><g fill="#ffffff" fill-opacity="1"><g transform="translate(398.026863, 410.649936)"><g><path d="M 18.40625 0 L 17.4375 -2.75 L 17 -2.75 C 16.351562 -1.738281 15.460938 -0.960938 14.328125 -0.421875 C 13.191406 0.117188 11.851562 0.390625 10.3125 0.390625 C 7.875 0.390625 5.976562 -0.3125 4.625 -1.71875 C 3.269531 -3.132812 2.59375 -5.132812 2.59375 -7.71875 L 2.59375 -22.125 L 10.234375 -22.125 L 10.234375 -10.046875 C 10.234375 -8.597656 10.4375 -7.5 10.84375 -6.75 C 11.257812 -6.007812 11.9375 -5.640625 12.875 -5.640625 C 14.1875 -5.640625 15.125 -6.15625 15.6875 -7.1875 C 16.25 -8.226562 16.53125 -9.976562 16.53125 -12.4375 L 16.53125 -22.125 L 24.15625 -22.125 L 24.15625 0 Z M 18.40625 0 "/></g></g></g><g fill="#ffffff" fill-opacity="1"><g transform="translate(424.821119, 410.649936)"><g><path d="M 13.328125 0.390625 C 9.640625 0.390625 6.773438 -0.585938 4.734375 -2.546875 C 2.703125 -4.503906 1.6875 -7.296875 1.6875 -10.921875 C 1.6875 -14.660156 2.628906 -17.523438 4.515625 -19.515625 C 6.398438 -21.515625 9.09375 -22.515625 12.59375 -22.515625 C 15.925781 -22.515625 18.5 -21.644531 20.3125 -19.90625 C 22.132812 -18.175781 23.046875 -15.675781 23.046875 -12.40625 L 23.046875 -9 L 9.390625 -9 C 9.441406 -7.769531 9.894531 -6.800781 10.75 -6.09375 C 11.601562 -5.394531 12.765625 -5.046875 14.234375 -5.046875 C 15.578125 -5.046875 16.8125 -5.171875 17.9375 -5.421875 C 19.0625 -5.671875 20.285156 -6.101562 21.609375 -6.71875 L 21.609375 -1.234375 C 20.410156 -0.617188 19.171875 -0.195312 17.890625 0.03125 C 16.617188 0.269531 15.097656 0.390625 13.328125 0.390625 Z M 12.875 -17.328125 C 11.976562 -17.328125 11.222656 -17.039062 10.609375 -16.46875 C 10.003906 -15.90625 9.648438 -15.019531 9.546875 -13.8125 L 16.109375 -13.8125 C 16.085938 -14.875 15.785156 -15.722656 15.203125 -16.359375 C 14.628906 -17.003906 13.851562 -17.328125 12.875 -17.328125 Z M 12.875 -17.328125 "/></g></g></g><g fill="#ffffff" fill-opacity="1"><g transform="translate(449.545264, 410.649936)"><g/></g></g><g fill="#ffffff" fill-opacity="1"><g transform="translate(459.934873, 410.649936)"><g><path d="M 16.5625 0 L 16.5625 -12.078125 C 16.5625 -15.046875 15.679688 -16.53125 13.921875 -16.53125 C 12.671875 -16.53125 11.75 -16.003906 11.15625 -14.953125 C 10.570312 -13.898438 10.28125 -12.160156 10.28125 -9.734375 L 10.28125 0 L 2.640625 0 L 2.640625 -30.390625 L 10.28125 -30.390625 L 10.28125 -26.078125 C 10.28125 -24.117188 10.175781 -21.890625 9.96875 -19.390625 L 10.3125 -19.390625 C 11.039062 -20.535156 11.90625 -21.34375 12.90625 -21.8125 C 13.914062 -22.28125 15.082031 -22.515625 16.40625 -22.515625 C 18.882812 -22.515625 20.804688 -21.800781 22.171875 -20.375 C 23.546875 -18.957031 24.234375 -16.960938 24.234375 -14.390625 L 24.234375 0 Z M 16.5625 0 "/></g></g></g><g fill="#ffffff" fill-opacity="1"><g transform="translate(486.729129, 410.649936)"><g><path d="M 17.078125 0 L 15.609375 -2.9375 L 15.453125 -2.9375 C 14.421875 -1.65625 13.367188 -0.78125 12.296875 -0.3125 C 11.234375 0.15625 9.859375 0.390625 8.171875 0.390625 C 6.085938 0.390625 4.445312 -0.234375 3.25 -1.484375 C 2.050781 -2.734375 1.453125 -4.492188 1.453125 -6.765625 C 1.453125 -9.117188 2.269531 -10.867188 3.90625 -12.015625 C 5.550781 -13.171875 7.925781 -13.820312 11.03125 -13.96875 L 14.734375 -14.078125 L 14.734375 -14.390625 C 14.734375 -16.210938 13.832031 -17.125 12.03125 -17.125 C 10.414062 -17.125 8.363281 -16.578125 5.875 -15.484375 L 3.671875 -20.53125 C 6.253906 -21.851562 9.507812 -22.515625 13.4375 -22.515625 C 16.28125 -22.515625 18.476562 -21.8125 20.03125 -20.40625 C 21.582031 -19 22.359375 -17.035156 22.359375 -14.515625 L 22.359375 0 Z M 11.40625 -5 C 12.332031 -5 13.125 -5.289062 13.78125 -5.875 C 14.4375 -6.46875 14.765625 -7.234375 14.765625 -8.171875 L 14.765625 -9.890625 L 13.015625 -9.8125 C 10.492188 -9.71875 9.234375 -8.789062 9.234375 -7.03125 C 9.234375 -5.675781 9.957031 -5 11.40625 -5 Z M 11.40625 -5 "/></g></g></g><g fill="#ffffff" fill-opacity="1"><g transform="translate(511.648568, 410.649936)"><g><path d="M 19.734375 -6.796875 C 19.734375 -4.429688 18.925781 -2.640625 17.3125 -1.421875 C 15.695312 -0.210938 13.378906 0.390625 10.359375 0.390625 C 8.710938 0.390625 7.285156 0.300781 6.078125 0.125 C 4.867188 -0.0507812 3.628906 -0.375 2.359375 -0.84375 L 2.359375 -6.953125 C 3.546875 -6.429688 4.84375 -6 6.25 -5.65625 C 7.664062 -5.320312 8.929688 -5.15625 10.046875 -5.15625 C 11.691406 -5.15625 12.515625 -5.535156 12.515625 -6.296875 C 12.515625 -6.679688 12.285156 -7.023438 11.828125 -7.328125 C 11.367188 -7.640625 10.023438 -8.238281 7.796875 -9.125 C 5.765625 -9.957031 4.34375 -10.90625 3.53125 -11.96875 C 2.726562 -13.03125 2.328125 -14.375 2.328125 -16 C 2.328125 -18.050781 3.117188 -19.648438 4.703125 -20.796875 C 6.296875 -21.941406 8.546875 -22.515625 11.453125 -22.515625 C 12.910156 -22.515625 14.28125 -22.351562 15.5625 -22.03125 C 16.84375 -21.71875 18.171875 -21.253906 19.546875 -20.640625 L 17.484375 -15.71875 C 16.460938 -16.175781 15.382812 -16.5625 14.25 -16.875 C 13.125 -17.195312 12.203125 -17.359375 11.484375 -17.359375 C 10.234375 -17.359375 9.609375 -17.054688 9.609375 -16.453125 C 9.609375 -16.066406 9.828125 -15.738281 10.265625 -15.46875 C 10.703125 -15.207031 11.960938 -14.664062 14.046875 -13.84375 C 15.597656 -13.207031 16.753906 -12.582031 17.515625 -11.96875 C 18.273438 -11.363281 18.832031 -10.644531 19.1875 -9.8125 C 19.550781 -8.988281 19.734375 -7.984375 19.734375 -6.796875 Z M 19.734375 -6.796875 "/></g></g></g><g fill="#ffffff" fill-opacity="1"><g transform="translate(290.687117, 466.149931)"><g><path d="M 10.28125 0 L 2.640625 0 L 2.640625 -30.390625 L 10.28125 -30.390625 Z M 10.28125 0 "/></g></g></g><g fill="#ffffff" fill-opacity="1"><g transform="translate(303.615541, 466.149931)"><g><path d="M 13.328125 0.390625 C 9.640625 0.390625 6.773438 -0.585938 4.734375 -2.546875 C 2.703125 -4.503906 1.6875 -7.296875 1.6875 -10.921875 C 1.6875 -14.660156 2.628906 -17.523438 4.515625 -19.515625 C 6.398438 -21.515625 9.09375 -22.515625 12.59375 -22.515625 C 15.925781 -22.515625 18.5 -21.644531 20.3125 -19.90625 C 22.132812 -18.175781 23.046875 -15.675781 23.046875 -12.40625 L 23.046875 -9 L 9.390625 -9 C 9.441406 -7.769531 9.894531 -6.800781 10.75 -6.09375 C 11.601562 -5.394531 12.765625 -5.046875 14.234375 -5.046875 C 15.578125 -5.046875 16.8125 -5.171875 17.9375 -5.421875 C 19.0625 -5.671875 20.285156 -6.101562 21.609375 -6.71875 L 21.609375 -1.234375 C 20.410156 -0.617188 19.171875 -0.195312 17.890625 0.03125 C 16.617188 0.269531 15.097656 0.390625 13.328125 0.390625 Z M 12.875 -17.328125 C 11.976562 -17.328125 11.222656 -17.039062 10.609375 -16.46875 C 10.003906 -15.90625 9.648438 -15.019531 9.546875 -13.8125 L 16.109375 -13.8125 C 16.085938 -14.875 15.785156 -15.722656 15.203125 -16.359375 C 14.628906 -17.003906 13.851562 -17.328125 12.875 -17.328125 Z M 12.875 -17.328125 "/></g></g></g><g fill="#ffffff" fill-opacity="1"><g transform="translate(328.339686, 466.149931)"><g><path d="M 10.3125 0 L 2.671875 0 L 2.671875 -22.125 L 10.3125 -22.125 Z M 2.09375 -24.234375 L 2.09375 -24.8125 C 4.101562 -26.957031 5.375 -28.34375 5.90625 -28.96875 C 6.445312 -29.59375 6.894531 -30.148438 7.25 -30.640625 L 15.609375 -30.640625 L 15.609375 -30.234375 C 14.566406 -29.398438 13.132812 -28.335938 11.3125 -27.046875 C 9.488281 -25.765625 8.109375 -24.828125 7.171875 -24.234375 Z M 2.09375 -24.234375 "/></g></g></g><g fill="#ffffff" fill-opacity="1"><g transform="translate(341.346227, 466.149931)"><g><path d="M 9.515625 0.390625 C 7.941406 0.390625 6.5625 -0.0546875 5.375 -0.953125 C 4.195312 -1.859375 3.285156 -3.179688 2.640625 -4.921875 C 2.003906 -6.671875 1.6875 -8.707031 1.6875 -11.03125 C 1.6875 -14.625 2.40625 -17.4375 3.84375 -19.46875 C 5.289062 -21.5 7.28125 -22.515625 9.8125 -22.515625 C 11.039062 -22.515625 12.117188 -22.265625 13.046875 -21.765625 C 13.984375 -21.273438 14.835938 -20.445312 15.609375 -19.28125 L 15.765625 -19.28125 C 15.515625 -21.007812 15.390625 -22.738281 15.390625 -24.46875 L 15.390625 -30.390625 L 23.09375 -30.390625 L 23.09375 0 L 17.328125 0 L 15.6875 -2.796875 L 15.390625 -2.796875 C 14.078125 -0.671875 12.117188 0.390625 9.515625 0.390625 Z M 12.640625 -5.640625 C 13.859375 -5.640625 14.71875 -6.023438 15.21875 -6.796875 C 15.726562 -7.566406 16 -8.753906 16.03125 -10.359375 L 16.03125 -10.953125 C 16.03125 -12.910156 15.75 -14.300781 15.1875 -15.125 C 14.632812 -15.957031 13.757812 -16.375 12.5625 -16.375 C 11.5625 -16.375 10.78125 -15.898438 10.21875 -14.953125 C 9.664062 -14.003906 9.390625 -12.660156 9.390625 -10.921875 C 9.390625 -9.203125 9.671875 -7.890625 10.234375 -6.984375 C 10.796875 -6.085938 11.597656 -5.640625 12.640625 -5.640625 Z M 12.640625 -5.640625 "/></g></g></g><g fill="#ffffff" fill-opacity="1"><g transform="translate(367.066374, 466.149931)"><g><path d="M 23.765625 -11.109375 C 23.765625 -7.492188 22.789062 -4.671875 20.84375 -2.640625 C 18.90625 -0.617188 16.179688 0.390625 12.671875 0.390625 C 9.316406 0.390625 6.644531 -0.644531 4.65625 -2.71875 C 2.675781 -4.789062 1.6875 -7.585938 1.6875 -11.109375 C 1.6875 -14.722656 2.65625 -17.523438 4.59375 -19.515625 C 6.539062 -21.515625 9.273438 -22.515625 12.796875 -22.515625 C 14.972656 -22.515625 16.894531 -22.050781 18.5625 -21.125 C 20.226562 -20.207031 21.507812 -18.882812 22.40625 -17.15625 C 23.3125 -15.4375 23.765625 -13.421875 23.765625 -11.109375 Z M 9.4375 -11.109375 C 9.4375 -9.210938 9.6875 -7.765625 10.1875 -6.765625 C 10.695312 -5.773438 11.550781 -5.28125 12.75 -5.28125 C 13.9375 -5.28125 14.773438 -5.773438 15.265625 -6.765625 C 15.753906 -7.765625 16 -9.210938 16 -11.109375 C 16 -13.003906 15.75 -14.429688 15.25 -15.390625 C 14.757812 -16.359375 13.914062 -16.84375 12.71875 -16.84375 C 11.539062 -16.84375 10.695312 -16.363281 10.1875 -15.40625 C 9.6875 -14.445312 9.4375 -13.015625 9.4375 -11.109375 Z M 9.4375 -11.109375 "/></g></g></g><g fill="#ffffff" fill-opacity="1"><g transform="translate(392.55217, 466.149931)"><g/></g></g><g fill="#ffffff" fill-opacity="1"><g transform="translate(402.94178, 466.149931)"><g><path d="M 16.5625 0 L 16.5625 -12.078125 C 16.5625 -15.046875 15.679688 -16.53125 13.921875 -16.53125 C 12.671875 -16.53125 11.75 -16.003906 11.15625 -14.953125 C 10.570312 -13.898438 10.28125 -12.160156 10.28125 -9.734375 L 10.28125 0 L 2.640625 0 L 2.640625 -30.390625 L 10.28125 -30.390625 L 10.28125 -26.078125 C 10.28125 -24.117188 10.175781 -21.890625 9.96875 -19.390625 L 10.3125 -19.390625 C 11.039062 -20.535156 11.90625 -21.34375 12.90625 -21.8125 C 13.914062 -22.28125 15.082031 -22.515625 16.40625 -22.515625 C 18.882812 -22.515625 20.804688 -21.800781 22.171875 -20.375 C 23.546875 -18.957031 24.234375 -16.960938 24.234375 -14.390625 L 24.234375 0 Z M 16.5625 0 "/></g></g></g><g fill="#ffffff" fill-opacity="1"><g transform="translate(429.736035, 466.149931)"><g><path d="M 17.078125 0 L 15.609375 -2.9375 L 15.453125 -2.9375 C 14.421875 -1.65625 13.367188 -0.78125 12.296875 -0.3125 C 11.234375 0.15625 9.859375 0.390625 8.171875 0.390625 C 6.085938 0.390625 4.445312 -0.234375 3.25 -1.484375 C 2.050781 -2.734375 1.453125 -4.492188 1.453125 -6.765625 C 1.453125 -9.117188 2.269531 -10.867188 3.90625 -12.015625 C 5.550781 -13.171875 7.925781 -13.820312 11.03125 -13.96875 L 14.734375 -14.078125 L 14.734375 -14.390625 C 14.734375 -16.210938 13.832031 -17.125 12.03125 -17.125 C 10.414062 -17.125 8.363281 -16.578125 5.875 -15.484375 L 3.671875 -20.53125 C 6.253906 -21.851562 9.507812 -22.515625 13.4375 -22.515625 C 16.28125 -22.515625 18.476562 -21.8125 20.03125 -20.40625 C 21.582031 -19 22.359375 -17.035156 22.359375 -14.515625 L 22.359375 0 Z M 11.40625 -5 C 12.332031 -5 13.125 -5.289062 13.78125 -5.875 C 14.4375 -6.46875 14.765625 -7.234375 14.765625 -8.171875 L 14.765625 -9.890625 L 13.015625 -9.8125 C 10.492188 -9.71875 9.234375 -8.789062 9.234375 -7.03125 C 9.234375 -5.675781 9.957031 -5 11.40625 -5 Z M 11.40625 -5 "/></g></g></g><g fill="#ffffff" fill-opacity="1"><g transform="translate(454.655474, 466.149931)"><g><path d="M 19.734375 -6.796875 C 19.734375 -4.429688 18.925781 -2.640625 17.3125 -1.421875 C 15.695312 -0.210938 13.378906 0.390625 10.359375 0.390625 C 8.710938 0.390625 7.285156 0.300781 6.078125 0.125 C 4.867188 -0.0507812 3.628906 -0.375 2.359375 -0.84375 L 2.359375 -6.953125 C 3.546875 -6.429688 4.84375 -6 6.25 -5.65625 C 7.664062 -5.320312 8.929688 -5.15625 10.046875 -5.15625 C 11.691406 -5.15625 12.515625 -5.535156 12.515625 -6.296875 C 12.515625 -6.679688 12.285156 -7.023438 11.828125 -7.328125 C 11.367188 -7.640625 10.023438 -8.238281 7.796875 -9.125 C 5.765625 -9.957031 4.34375 -10.90625 3.53125 -11.96875 C 2.726562 -13.03125 2.328125 -14.375 2.328125 -16 C 2.328125 -18.050781 3.117188 -19.648438 4.703125 -20.796875 C 6.296875 -21.941406 8.546875 -22.515625 11.453125 -22.515625 C 12.910156 -22.515625 14.28125 -22.351562 15.5625 -22.03125 C 16.84375 -21.71875 18.171875 -21.253906 19.546875 -20.640625 L 17.484375 -15.71875 C 16.460938 -16.175781 15.382812 -16.5625 14.25 -16.875 C 13.125 -17.195312 12.203125 -17.359375 11.484375 -17.359375 C 10.234375 -17.359375 9.609375 -17.054688 9.609375 -16.453125 C 9.609375 -16.066406 9.828125 -15.738281 10.265625 -15.46875 C 10.703125 -15.207031 11.960938 -14.664062 14.046875 -13.84375 C 15.597656 -13.207031 16.753906 -12.582031 17.515625 -11.96875 C 18.273438 -11.363281 18.832031 -10.644531 19.1875 -9.8125 C 19.550781 -8.988281 19.734375 -7.984375 19.734375 -6.796875 Z M 19.734375 -6.796875 "/></g></g></g><g fill="#ffffff" fill-opacity="1"><g transform="translate(475.981515, 466.149931)"><g><path d="M 13.484375 -5.640625 C 14.503906 -5.640625 15.734375 -5.894531 17.171875 -6.40625 L 17.171875 -0.84375 C 16.140625 -0.394531 15.15625 -0.078125 14.21875 0.109375 C 13.289062 0.296875 12.203125 0.390625 10.953125 0.390625 C 8.390625 0.390625 6.539062 -0.234375 5.40625 -1.484375 C 4.28125 -2.742188 3.71875 -4.675781 3.71875 -7.28125 L 3.71875 -16.40625 L 1.03125 -16.40625 L 1.03125 -19.515625 L 4.4375 -21.921875 L 6.40625 -26.5625 L 11.40625 -26.5625 L 11.40625 -22.125 L 16.84375 -22.125 L 16.84375 -16.40625 L 11.40625 -16.40625 L 11.40625 -7.796875 C 11.40625 -6.359375 12.097656 -5.640625 13.484375 -5.640625 Z M 13.484375 -5.640625 "/></g></g></g><g fill="#ffffff" fill-opacity="1"><g transform="translate(494.378154, 466.149931)"><g><path d="M 17.078125 0 L 15.609375 -2.9375 L 15.453125 -2.9375 C 14.421875 -1.65625 13.367188 -0.78125 12.296875 -0.3125 C 11.234375 0.15625 9.859375 0.390625 8.171875 0.390625 C 6.085938 0.390625 4.445312 -0.234375 3.25 -1.484375 C 2.050781 -2.734375 1.453125 -4.492188 1.453125 -6.765625 C 1.453125 -9.117188 2.269531 -10.867188 3.90625 -12.015625 C 5.550781 -13.171875 7.925781 -13.820312 11.03125 -13.96875 L 14.734375 -14.078125 L 14.734375 -14.390625 C 14.734375 -16.210938 13.832031 -17.125 12.03125 -17.125 C 10.414062 -17.125 8.363281 -16.578125 5.875 -15.484375 L 3.671875 -20.53125 C 6.253906 -21.851562 9.507812 -22.515625 13.4375 -22.515625 C 16.28125 -22.515625 18.476562 -21.8125 20.03125 -20.40625 C 21.582031 -19 22.359375 -17.035156 22.359375 -14.515625 L 22.359375 0 Z M 11.40625 -5 C 12.332031 -5 13.125 -5.289062 13.78125 -5.875 C 14.4375 -6.46875 14.765625 -7.234375 14.765625 -8.171875 L 14.765625 -9.890625 L 13.015625 -9.8125 C 10.492188 -9.71875 9.234375 -8.789062 9.234375 -7.03125 C 9.234375 -5.675781 9.957031 -5 11.40625 -5 Z M 11.40625 -5 "/></g></g></g><g fill="#ffffff" fill-opacity="1"><g transform="translate(286.468367, 521.649926)"><g><path d="M 17.078125 0 L 15.609375 -2.9375 L 15.453125 -2.9375 C 14.421875 -1.65625 13.367188 -0.78125 12.296875 -0.3125 C 11.234375 0.15625 9.859375 0.390625 8.171875 0.390625 C 6.085938 0.390625 4.445312 -0.234375 3.25 -1.484375 C 2.050781 -2.734375 1.453125 -4.492188 1.453125 -6.765625 C 1.453125 -9.117188 2.269531 -10.867188 3.90625 -12.015625 C 5.550781 -13.171875 7.925781 -13.820312 11.03125 -13.96875 L 14.734375 -14.078125 L 14.734375 -14.390625 C 14.734375 -16.210938 13.832031 -17.125 12.03125 -17.125 C 10.414062 -17.125 8.363281 -16.578125 5.875 -15.484375 L 3.671875 -20.53125 C 6.253906 -21.851562 9.507812 -22.515625 13.4375 -22.515625 C 16.28125 -22.515625 18.476562 -21.8125 20.03125 -20.40625 C 21.582031 -19 22.359375 -17.035156 22.359375 -14.515625 L 22.359375 0 Z M 11.40625 -5 C 12.332031 -5 13.125 -5.289062 13.78125 -5.875 C 14.4375 -6.46875 14.765625 -7.234375 14.765625 -8.171875 L 14.765625 -9.890625 L 13.015625 -9.8125 C 10.492188 -9.71875 9.234375 -8.789062 9.234375 -7.03125 C 9.234375 -5.675781 9.957031 -5 11.40625 -5 Z M 11.40625 -5 "/></g></g></g><g fill="#ffffff" fill-opacity="1"><g transform="translate(311.387806, 521.649926)"><g><path d="M 16.5625 0 L 16.5625 -12.078125 C 16.5625 -15.046875 15.679688 -16.53125 13.921875 -16.53125 C 12.671875 -16.53125 11.75 -16.003906 11.15625 -14.953125 C 10.570312 -13.898438 10.28125 -12.160156 10.28125 -9.734375 L 10.28125 0 L 2.640625 0 L 2.640625 -30.390625 L 10.28125 -30.390625 L 10.28125 -26.078125 C 10.28125 -24.117188 10.175781 -21.890625 9.96875 -19.390625 L 10.3125 -19.390625 C 11.039062 -20.535156 11.90625 -21.34375 12.90625 -21.8125 C 13.914062 -22.28125 15.082031 -22.515625 16.40625 -22.515625 C 18.882812 -22.515625 20.804688 -21.800781 22.171875 -20.375 C 23.546875 -18.957031 24.234375 -16.960938 24.234375 -14.390625 L 24.234375 0 Z M 16.5625 0 "/></g></g></g><g fill="#ffffff" fill-opacity="1"><g transform="translate(338.182062, 521.649926)"><g><path d="M 23.765625 -11.109375 C 23.765625 -7.492188 22.789062 -4.671875 20.84375 -2.640625 C 18.90625 -0.617188 16.179688 0.390625 12.671875 0.390625 C 9.316406 0.390625 6.644531 -0.644531 4.65625 -2.71875 C 2.675781 -4.789062 1.6875 -7.585938 1.6875 -11.109375 C 1.6875 -14.722656 2.65625 -17.523438 4.59375 -19.515625 C 6.539062 -21.515625 9.273438 -22.515625 12.796875 -22.515625 C 14.972656 -22.515625 16.894531 -22.050781 18.5625 -21.125 C 20.226562 -20.207031 21.507812 -18.882812 22.40625 -17.15625 C 23.3125 -15.4375 23.765625 -13.421875 23.765625 -11.109375 Z M 9.4375 -11.109375 C 9.4375 -9.210938 9.6875 -7.765625 10.1875 -6.765625 C 10.695312 -5.773438 11.550781 -5.28125 12.75 -5.28125 C 13.9375 -5.28125 14.773438 -5.773438 15.265625 -6.765625 C 15.753906 -7.765625 16 -9.210938 16 -11.109375 C 16 -13.003906 15.75 -14.429688 15.25 -15.390625 C 14.757812 -16.359375 13.914062 -16.84375 12.71875 -16.84375 C 11.539062 -16.84375 10.695312 -16.363281 10.1875 -15.40625 C 9.6875 -14.445312 9.4375 -13.015625 9.4375 -11.109375 Z M 9.4375 -11.109375 "/></g></g></g><g fill="#ffffff" fill-opacity="1"><g transform="translate(363.667858, 521.649926)"><g><path d="M 16 -22.515625 C 16.664062 -22.515625 17.296875 -22.460938 17.890625 -22.359375 L 18.328125 -22.28125 L 17.640625 -15.078125 C 17.015625 -15.234375 16.148438 -15.3125 15.046875 -15.3125 C 13.378906 -15.3125 12.164062 -14.929688 11.40625 -14.171875 C 10.65625 -13.410156 10.28125 -12.3125 10.28125 -10.875 L 10.28125 0 L 2.640625 0 L 2.640625 -22.125 L 8.328125 -22.125 L 9.515625 -18.59375 L 9.890625 -18.59375 C 10.523438 -19.769531 11.410156 -20.71875 12.546875 -21.4375 C 13.691406 -22.15625 14.84375 -22.515625 16 -22.515625 Z M 16 -22.515625 "/></g></g></g><g fill="#ffffff" fill-opacity="1"><g transform="translate(382.43556, 521.649926)"><g><path d="M 17.078125 0 L 15.609375 -2.9375 L 15.453125 -2.9375 C 14.421875 -1.65625 13.367188 -0.78125 12.296875 -0.3125 C 11.234375 0.15625 9.859375 0.390625 8.171875 0.390625 C 6.085938 0.390625 4.445312 -0.234375 3.25 -1.484375 C 2.050781 -2.734375 1.453125 -4.492188 1.453125 -6.765625 C 1.453125 -9.117188 2.269531 -10.867188 3.90625 -12.015625 C 5.550781 -13.171875 7.925781 -13.820312 11.03125 -13.96875 L 14.734375 -14.078125 L 14.734375 -14.390625 C 14.734375 -16.210938 13.832031 -17.125 12.03125 -17.125 C 10.414062 -17.125 8.363281 -16.578125 5.875 -15.484375 L 3.671875 -20.53125 C 6.253906 -21.851562 9.507812 -22.515625 13.4375 -22.515625 C 16.28125 -22.515625 18.476562 -21.8125 20.03125 -20.40625 C 21.582031 -19 22.359375 -17.035156 22.359375 -14.515625 L 22.359375 0 Z M 11.40625 -5 C 12.332031 -5 13.125 -5.289062 13.78125 -5.875 C 14.4375 -6.46875 14.765625 -7.234375 14.765625 -8.171875 L 14.765625 -9.890625 L 13.015625 -9.8125 C 10.492188 -9.71875 9.234375 -8.789062 9.234375 -7.03125 C 9.234375 -5.675781 9.957031 -5 11.40625 -5 Z M 11.40625 -5 "/></g></g></g><g fill="#ffffff" fill-opacity="1"><g transform="translate(407.354999, 521.649926)"><g/></g></g><g fill="#ffffff" fill-opacity="1"><g transform="translate(417.744608, 521.649926)"><g><path d="M 16.609375 0 L 16.609375 -12.078125 C 16.609375 -13.546875 16.394531 -14.65625 15.96875 -15.40625 C 15.539062 -16.15625 14.859375 -16.53125 13.921875 -16.53125 C 12.640625 -16.53125 11.710938 -16.015625 11.140625 -14.984375 C 10.566406 -13.953125 10.28125 -12.1875 10.28125 -9.6875 L 10.28125 0 L 2.640625 0 L 2.640625 -22.125 L 8.40625 -22.125 L 9.359375 -19.390625 L 9.8125 -19.390625 C 10.457031 -20.429688 11.351562 -21.210938 12.5 -21.734375 C 13.65625 -22.253906 14.984375 -22.515625 16.484375 -22.515625 C 18.929688 -22.515625 20.832031 -21.804688 22.1875 -20.390625 C 23.550781 -18.972656 24.234375 -16.972656 24.234375 -14.390625 L 24.234375 0 Z M 16.609375 0 "/></g></g></g><g fill="#ffffff" fill-opacity="1"><g transform="translate(444.538864, 521.649926)"><g><path d="M 23.765625 -11.109375 C 23.765625 -7.492188 22.789062 -4.671875 20.84375 -2.640625 C 18.90625 -0.617188 16.179688 0.390625 12.671875 0.390625 C 9.316406 0.390625 6.644531 -0.644531 4.65625 -2.71875 C 2.675781 -4.789062 1.6875 -7.585938 1.6875 -11.109375 C 1.6875 -14.722656 2.65625 -17.523438 4.59375 -19.515625 C 6.539062 -21.515625 9.273438 -22.515625 12.796875 -22.515625 C 14.972656 -22.515625 16.894531 -22.050781 18.5625 -21.125 C 20.226562 -20.207031 21.507812 -18.882812 22.40625 -17.15625 C 23.3125 -15.4375 23.765625 -13.421875 23.765625 -11.109375 Z M 9.4375 -11.109375 C 9.4375 -9.210938 9.6875 -7.765625 10.1875 -6.765625 C 10.695312 -5.773438 11.550781 -5.28125 12.75 -5.28125 C 13.9375 -5.28125 14.773438 -5.773438 15.265625 -6.765625 C 15.753906 -7.765625 16 -9.210938 16 -11.109375 C 16 -13.003906 15.75 -14.429688 15.25 -15.390625 C 14.757812 -16.359375 13.914062 -16.84375 12.71875 -16.84375 C 11.539062 -16.84375 10.695312 -16.363281 10.1875 -15.40625 C 9.6875 -14.445312 9.4375 -13.015625 9.4375 -11.109375 Z M 9.4375 -11.109375 "/></g></g></g><g fill="#ffffff" fill-opacity="1"><g transform="translate(470.02466, 521.649926)"><g/></g></g><g fill="#ffffff" fill-opacity="1"><g transform="translate(480.414258, 521.649926)"><g><path d="M 13.484375 -5.640625 C 14.503906 -5.640625 15.734375 -5.894531 17.171875 -6.40625 L 17.171875 -0.84375 C 16.140625 -0.394531 15.15625 -0.078125 14.21875 0.109375 C 13.289062 0.296875 12.203125 0.390625 10.953125 0.390625 C 8.390625 0.390625 6.539062 -0.234375 5.40625 -1.484375 C 4.28125 -2.742188 3.71875 -4.675781 3.71875 -7.28125 L 3.71875 -16.40625 L 1.03125 -16.40625 L 1.03125 -19.515625 L 4.4375 -21.921875 L 6.40625 -26.5625 L 11.40625 -26.5625 L 11.40625 -22.125 L 16.84375 -22.125 L 16.84375 -16.40625 L 11.40625 -16.40625 L 11.40625 -7.796875 C 11.40625 -6.359375 12.097656 -5.640625 13.484375 -5.640625 Z M 13.484375 -5.640625 "/></g></g></g><g fill="#ffffff" fill-opacity="1"><g transform="translate(498.810909, 521.649926)"><g><path d="M 13.328125 0.390625 C 9.640625 0.390625 6.773438 -0.585938 4.734375 -2.546875 C 2.703125 -4.503906 1.6875 -7.296875 1.6875 -10.921875 C 1.6875 -14.660156 2.628906 -17.523438 4.515625 -19.515625 C 6.398438 -21.515625 9.09375 -22.515625 12.59375 -22.515625 C 15.925781 -22.515625 18.5 -21.644531 20.3125 -19.90625 C 22.132812 -18.175781 23.046875 -15.675781 23.046875 -12.40625 L 23.046875 -9 L 9.390625 -9 C 9.441406 -7.769531 9.894531 -6.800781 10.75 -6.09375 C 11.601562 -5.394531 12.765625 -5.046875 14.234375 -5.046875 C 15.578125 -5.046875 16.8125 -5.171875 17.9375 -5.421875 C 19.0625 -5.671875 20.285156 -6.101562 21.609375 -6.71875 L 21.609375 -1.234375 C 20.410156 -0.617188 19.171875 -0.195312 17.890625 0.03125 C 16.617188 0.269531 15.097656 0.390625 13.328125 0.390625 Z M 12.875 -17.328125 C 11.976562 -17.328125 11.222656 -17.039062 10.609375 -16.46875 C 10.003906 -15.90625 9.648438 -15.019531 9.546875 -13.8125 L 16.109375 -13.8125 C 16.085938 -14.875 15.785156 -15.722656 15.203125 -16.359375 C 14.628906 -17.003906 13.851562 -17.328125 12.875 -17.328125 Z M 12.875 -17.328125 "/></g></g></g><g fill="#ffffff" fill-opacity="1"><g transform="translate(246.577746, 577.149921)"><g><path d="M 16 -22.515625 C 16.664062 -22.515625 17.296875 -22.460938 17.890625 -22.359375 L 18.328125 -22.28125 L 17.640625 -15.078125 C 17.015625 -15.234375 16.148438 -15.3125 15.046875 -15.3125 C 13.378906 -15.3125 12.164062 -14.929688 11.40625 -14.171875 C 10.65625 -13.410156 10.28125 -12.3125 10.28125 -10.875 L 10.28125 0 L 2.640625 0 L 2.640625 -22.125 L 8.328125 -22.125 L 9.515625 -18.59375 L 9.890625 -18.59375 C 10.523438 -19.769531 11.410156 -20.71875 12.546875 -21.4375 C 13.691406 -22.15625 14.84375 -22.515625 16 -22.515625 Z M 16 -22.515625 "/></g></g></g><g fill="#ffffff" fill-opacity="1"><g transform="translate(265.345448, 577.149921)"><g><path d="M 13.328125 0.390625 C 9.640625 0.390625 6.773438 -0.585938 4.734375 -2.546875 C 2.703125 -4.503906 1.6875 -7.296875 1.6875 -10.921875 C 1.6875 -14.660156 2.628906 -17.523438 4.515625 -19.515625 C 6.398438 -21.515625 9.09375 -22.515625 12.59375 -22.515625 C 15.925781 -22.515625 18.5 -21.644531 20.3125 -19.90625 C 22.132812 -18.175781 23.046875 -15.675781 23.046875 -12.40625 L 23.046875 -9 L 9.390625 -9 C 9.441406 -7.769531 9.894531 -6.800781 10.75 -6.09375 C 11.601562 -5.394531 12.765625 -5.046875 14.234375 -5.046875 C 15.578125 -5.046875 16.8125 -5.171875 17.9375 -5.421875 C 19.0625 -5.671875 20.285156 -6.101562 21.609375 -6.71875 L 21.609375 -1.234375 C 20.410156 -0.617188 19.171875 -0.195312 17.890625 0.03125 C 16.617188 0.269531 15.097656 0.390625 13.328125 0.390625 Z M 12.875 -17.328125 C 11.976562 -17.328125 11.222656 -17.039062 10.609375 -16.46875 C 10.003906 -15.90625 9.648438 -15.019531 9.546875 -13.8125 L 16.109375 -13.8125 C 16.085938 -14.875 15.785156 -15.722656 15.203125 -16.359375 C 14.628906 -17.003906 13.851562 -17.328125 12.875 -17.328125 Z M 12.875 -17.328125 "/></g></g></g><g fill="#ffffff" fill-opacity="1"><g transform="translate(290.069593, 577.149921)"><g><path d="M 15.921875 0.390625 C 14.796875 0.390625 13.789062 0.207031 12.90625 -0.15625 C 12.019531 -0.53125 11.144531 -1.203125 10.28125 -2.171875 L 9.921875 -2.171875 C 10.160156 -0.617188 10.28125 0.34375 10.28125 0.71875 L 10.28125 9.609375 L 2.640625 9.609375 L 2.640625 -22.125 L 8.84375 -22.125 L 9.921875 -19.3125 L 10.28125 -19.3125 C 11.695312 -21.445312 13.65625 -22.515625 16.15625 -22.515625 C 18.601562 -22.515625 20.519531 -21.5 21.90625 -19.46875 C 23.300781 -17.4375 24 -14.648438 24 -11.109375 C 24 -7.546875 23.273438 -4.738281 21.828125 -2.6875 C 20.378906 -0.632812 18.410156 0.390625 15.921875 0.390625 Z M 13.359375 -16.53125 C 12.242188 -16.53125 11.457031 -16.128906 11 -15.328125 C 10.550781 -14.523438 10.3125 -13.335938 10.28125 -11.765625 L 10.28125 -11.15625 C 10.28125 -9.25 10.53125 -7.875 11.03125 -7.03125 C 11.539062 -6.1875 12.34375 -5.765625 13.4375 -5.765625 C 14.414062 -5.765625 15.125 -6.179688 15.5625 -7.015625 C 16.007812 -7.859375 16.234375 -9.25 16.234375 -11.1875 C 16.234375 -13.09375 16.007812 -14.457031 15.5625 -15.28125 C 15.125 -16.113281 14.390625 -16.53125 13.359375 -16.53125 Z M 13.359375 -16.53125 "/></g></g></g><g fill="#ffffff" fill-opacity="1"><g transform="translate(315.789741, 577.149921)"><g><path d="M 16 -22.515625 C 16.664062 -22.515625 17.296875 -22.460938 17.890625 -22.359375 L 18.328125 -22.28125 L 17.640625 -15.078125 C 17.015625 -15.234375 16.148438 -15.3125 15.046875 -15.3125 C 13.378906 -15.3125 12.164062 -14.929688 11.40625 -14.171875 C 10.65625 -13.410156 10.28125 -12.3125 10.28125 -10.875 L 10.28125 0 L 2.640625 0 L 2.640625 -22.125 L 8.328125 -22.125 L 9.515625 -18.59375 L 9.890625 -18.59375 C 10.523438 -19.769531 11.410156 -20.71875 12.546875 -21.4375 C 13.691406 -22.15625 14.84375 -22.515625 16 -22.515625 Z M 16 -22.515625 "/></g></g></g><g fill="#ffffff" fill-opacity="1"><g transform="translate(334.557443, 577.149921)"><g><path d="M 13.328125 0.390625 C 9.640625 0.390625 6.773438 -0.585938 4.734375 -2.546875 C 2.703125 -4.503906 1.6875 -7.296875 1.6875 -10.921875 C 1.6875 -14.660156 2.628906 -17.523438 4.515625 -19.515625 C 6.398438 -21.515625 9.09375 -22.515625 12.59375 -22.515625 C 15.925781 -22.515625 18.5 -21.644531 20.3125 -19.90625 C 22.132812 -18.175781 23.046875 -15.675781 23.046875 -12.40625 L 23.046875 -9 L 9.390625 -9 C 9.441406 -7.769531 9.894531 -6.800781 10.75 -6.09375 C 11.601562 -5.394531 12.765625 -5.046875 14.234375 -5.046875 C 15.578125 -5.046875 16.8125 -5.171875 17.9375 -5.421875 C 19.0625 -5.671875 20.285156 -6.101562 21.609375 -6.71875 L 21.609375 -1.234375 C 20.410156 -0.617188 19.171875 -0.195312 17.890625 0.03125 C 16.617188 0.269531 15.097656 0.390625 13.328125 0.390625 Z M 12.875 -17.328125 C 11.976562 -17.328125 11.222656 -17.039062 10.609375 -16.46875 C 10.003906 -15.90625 9.648438 -15.019531 9.546875 -13.8125 L 16.109375 -13.8125 C 16.085938 -14.875 15.785156 -15.722656 15.203125 -16.359375 C 14.628906 -17.003906 13.851562 -17.328125 12.875 -17.328125 Z M 12.875 -17.328125 "/></g></g></g><g fill="#ffffff" fill-opacity="1"><g transform="translate(359.281588, 577.149921)"><g><path d="M 19.734375 -6.796875 C 19.734375 -4.429688 18.925781 -2.640625 17.3125 -1.421875 C 15.695312 -0.210938 13.378906 0.390625 10.359375 0.390625 C 8.710938 0.390625 7.285156 0.300781 6.078125 0.125 C 4.867188 -0.0507812 3.628906 -0.375 2.359375 -0.84375 L 2.359375 -6.953125 C 3.546875 -6.429688 4.84375 -6 6.25 -5.65625 C 7.664062 -5.320312 8.929688 -5.15625 10.046875 -5.15625 C 11.691406 -5.15625 12.515625 -5.535156 12.515625 -6.296875 C 12.515625 -6.679688 12.285156 -7.023438 11.828125 -7.328125 C 11.367188 -7.640625 10.023438 -8.238281 7.796875 -9.125 C 5.765625 -9.957031 4.34375 -10.90625 3.53125 -11.96875 C 2.726562 -13.03125 2.328125 -14.375 2.328125 -16 C 2.328125 -18.050781 3.117188 -19.648438 4.703125 -20.796875 C 6.296875 -21.941406 8.546875 -22.515625 11.453125 -22.515625 C 12.910156 -22.515625 14.28125 -22.351562 15.5625 -22.03125 C 16.84375 -21.71875 18.171875 -21.253906 19.546875 -20.640625 L 17.484375 -15.71875 C 16.460938 -16.175781 15.382812 -16.5625 14.25 -16.875 C 13.125 -17.195312 12.203125 -17.359375 11.484375 -17.359375 C 10.234375 -17.359375 9.609375 -17.054688 9.609375 -16.453125 C 9.609375 -16.066406 9.828125 -15.738281 10.265625 -15.46875 C 10.703125 -15.207031 11.960938 -14.664062 14.046875 -13.84375 C 15.597656 -13.207031 16.753906 -12.582031 17.515625 -11.96875 C 18.273438 -11.363281 18.832031 -10.644531 19.1875 -9.8125 C 19.550781 -8.988281 19.734375 -7.984375 19.734375 -6.796875 Z M 19.734375 -6.796875 "/></g></g></g><g fill="#ffffff" fill-opacity="1"><g transform="translate(380.607628, 577.149921)"><g><path d="M 13.328125 0.390625 C 9.640625 0.390625 6.773438 -0.585938 4.734375 -2.546875 C 2.703125 -4.503906 1.6875 -7.296875 1.6875 -10.921875 C 1.6875 -14.660156 2.628906 -17.523438 4.515625 -19.515625 C 6.398438 -21.515625 9.09375 -22.515625 12.59375 -22.515625 C 15.925781 -22.515625 18.5 -21.644531 20.3125 -19.90625 C 22.132812 -18.175781 23.046875 -15.675781 23.046875 -12.40625 L 23.046875 -9 L 9.390625 -9 C 9.441406 -7.769531 9.894531 -6.800781 10.75 -6.09375 C 11.601562 -5.394531 12.765625 -5.046875 14.234375 -5.046875 C 15.578125 -5.046875 16.8125 -5.171875 17.9375 -5.421875 C 19.0625 -5.671875 20.285156 -6.101562 21.609375 -6.71875 L 21.609375 -1.234375 C 20.410156 -0.617188 19.171875 -0.195312 17.890625 0.03125 C 16.617188 0.269531 15.097656 0.390625 13.328125 0.390625 Z M 12.875 -17.328125 C 11.976562 -17.328125 11.222656 -17.039062 10.609375 -16.46875 C 10.003906 -15.90625 9.648438 -15.019531 9.546875 -13.8125 L 16.109375 -13.8125 C 16.085938 -14.875 15.785156 -15.722656 15.203125 -16.359375 C 14.628906 -17.003906 13.851562 -17.328125 12.875 -17.328125 Z M 12.875 -17.328125 "/></g></g></g><g fill="#ffffff" fill-opacity="1"><g transform="translate(405.331774, 577.149921)"><g><path d="M 16.609375 0 L 16.609375 -12.078125 C 16.609375 -13.546875 16.394531 -14.65625 15.96875 -15.40625 C 15.539062 -16.15625 14.859375 -16.53125 13.921875 -16.53125 C 12.640625 -16.53125 11.710938 -16.015625 11.140625 -14.984375 C 10.566406 -13.953125 10.28125 -12.1875 10.28125 -9.6875 L 10.28125 0 L 2.640625 0 L 2.640625 -22.125 L 8.40625 -22.125 L 9.359375 -19.390625 L 9.8125 -19.390625 C 10.457031 -20.429688 11.351562 -21.210938 12.5 -21.734375 C 13.65625 -22.253906 14.984375 -22.515625 16.484375 -22.515625 C 18.929688 -22.515625 20.832031 -21.804688 22.1875 -20.390625 C 23.550781 -18.972656 24.234375 -16.972656 24.234375 -14.390625 L 24.234375 0 Z M 16.609375 0 "/></g></g></g><g fill="#ffffff" fill-opacity="1"><g transform="translate(432.126029, 577.149921)"><g><path d="M 13.484375 -5.640625 C 14.503906 -5.640625 15.734375 -5.894531 17.171875 -6.40625 L 17.171875 -0.84375 C 16.140625 -0.394531 15.15625 -0.078125 14.21875 0.109375 C 13.289062 0.296875 12.203125 0.390625 10.953125 0.390625 C 8.390625 0.390625 6.539062 -0.234375 5.40625 -1.484375 C 4.28125 -2.742188 3.71875 -4.675781 3.71875 -7.28125 L 3.71875 -16.40625 L 1.03125 -16.40625 L 1.03125 -19.515625 L 4.4375 -21.921875 L 6.40625 -26.5625 L 11.40625 -26.5625 L 11.40625 -22.125 L 16.84375 -22.125 L 16.84375 -16.40625 L 11.40625 -16.40625 L 11.40625 -7.796875 C 11.40625 -6.359375 12.097656 -5.640625 13.484375 -5.640625 Z M 13.484375 -5.640625 "/></g></g></g><g fill="#ffffff" fill-opacity="1"><g transform="translate(450.522657, 577.149921)"><g><path d="M 17.078125 0 L 15.609375 -2.9375 L 15.453125 -2.9375 C 14.421875 -1.65625 13.367188 -0.78125 12.296875 -0.3125 C 11.234375 0.15625 9.859375 0.390625 8.171875 0.390625 C 6.085938 0.390625 4.445312 -0.234375 3.25 -1.484375 C 2.050781 -2.734375 1.453125 -4.492188 1.453125 -6.765625 C 1.453125 -9.117188 2.269531 -10.867188 3.90625 -12.015625 C 5.550781 -13.171875 7.925781 -13.820312 11.03125 -13.96875 L 14.734375 -14.078125 L 14.734375 -14.390625 C 14.734375 -16.210938 13.832031 -17.125 12.03125 -17.125 C 10.414062 -17.125 8.363281 -16.578125 5.875 -15.484375 L 3.671875 -20.53125 C 6.253906 -21.851562 9.507812 -22.515625 13.4375 -22.515625 C 16.28125 -22.515625 18.476562 -21.8125 20.03125 -20.40625 C 21.582031 -19 22.359375 -17.035156 22.359375 -14.515625 L 22.359375 0 Z M 11.40625 -5 C 12.332031 -5 13.125 -5.289062 13.78125 -5.875 C 14.4375 -6.46875 14.765625 -7.234375 14.765625 -8.171875 L 14.765625 -9.890625 L 13.015625 -9.8125 C 10.492188 -9.71875 9.234375 -8.789062 9.234375 -7.03125 C 9.234375 -5.675781 9.957031 -5 11.40625 -5 Z M 11.40625 -5 "/></g></g></g><g fill="#ffffff" fill-opacity="1"><g transform="translate(475.442096, 577.149921)"><g><path d="M 9.734375 -5.84375 L 10 -5.390625 C 8.738281 -0.429688 7.59375 3.21875 6.5625 5.5625 L 1.109375 5.5625 C 1.492188 3.769531 1.875 1.757812 2.25 -0.46875 C 2.632812 -2.707031 2.898438 -4.5 3.046875 -5.84375 Z M 9.734375 -5.84375 "/></g></g></g><g fill="#ffffff" fill-opacity="1"><g transform="translate(487.804163, 577.149921)"><g/></g></g><g fill="#ffffff" fill-opacity="1"><g transform="translate(498.193773, 577.149921)"><g><path d="M 30.28125 0 L 20.15625 0 L 9.734375 -20.125 L 9.546875 -20.125 C 9.796875 -16.957031 9.921875 -14.539062 9.921875 -12.875 L 9.921875 0 L 3.09375 0 L 3.09375 -28.5625 L 13.171875 -28.5625 L 23.5625 -8.71875 L 23.671875 -8.71875 C 23.492188 -11.59375 23.40625 -13.898438 23.40625 -15.640625 L 23.40625 -28.5625 L 30.28125 -28.5625 Z M 30.28125 0 "/></g></g></g><g fill="#ffffff" fill-opacity="1"><g transform="translate(531.549887, 577.149921)"><g><path d="M 29.8125 -14.3125 C 29.8125 -9.507812 28.628906 -5.859375 26.265625 -3.359375 C 23.910156 -0.859375 20.460938 0.390625 15.921875 0.390625 C 11.441406 0.390625 8.003906 -0.863281 5.609375 -3.375 C 3.222656 -5.894531 2.03125 -9.554688 2.03125 -14.359375 C 2.03125 -19.109375 3.21875 -22.734375 5.59375 -25.234375 C 7.96875 -27.742188 11.421875 -29 15.953125 -29 C 20.503906 -29 23.953125 -27.753906 26.296875 -25.265625 C 28.640625 -22.785156 29.8125 -19.132812 29.8125 -14.3125 Z M 10.15625 -14.3125 C 10.15625 -8.789062 12.078125 -6.03125 15.921875 -6.03125 C 17.867188 -6.03125 19.316406 -6.703125 20.265625 -8.046875 C 21.210938 -9.390625 21.6875 -11.476562 21.6875 -14.3125 C 21.6875 -17.164062 21.207031 -19.269531 20.25 -20.625 C 19.289062 -21.988281 17.859375 -22.671875 15.953125 -22.671875 C 12.085938 -22.671875 10.15625 -19.882812 10.15625 -14.3125 Z M 10.15625 -14.3125 "/></g></g></g><g fill="#ffffff" fill-opacity="1"><g transform="translate(301.175397, 632.649916)"><g><path d="M 19.734375 -6.796875 C 19.734375 -4.429688 18.925781 -2.640625 17.3125 -1.421875 C 15.695312 -0.210938 13.378906 0.390625 10.359375 0.390625 C 8.710938 0.390625 7.285156 0.300781 6.078125 0.125 C 4.867188 -0.0507812 3.628906 -0.375 2.359375 -0.84375 L 2.359375 -6.953125 C 3.546875 -6.429688 4.84375 -6 6.25 -5.65625 C 7.664062 -5.320312 8.929688 -5.15625 10.046875 -5.15625 C 11.691406 -5.15625 12.515625 -5.535156 12.515625 -6.296875 C 12.515625 -6.679688 12.285156 -7.023438 11.828125 -7.328125 C 11.367188 -7.640625 10.023438 -8.238281 7.796875 -9.125 C 5.765625 -9.957031 4.34375 -10.90625 3.53125 -11.96875 C 2.726562 -13.03125 2.328125 -14.375 2.328125 -16 C 2.328125 -18.050781 3.117188 -19.648438 4.703125 -20.796875 C 6.296875 -21.941406 8.546875 -22.515625 11.453125 -22.515625 C 12.910156 -22.515625 14.28125 -22.351562 15.5625 -22.03125 C 16.84375 -21.71875 18.171875 -21.253906 19.546875 -20.640625 L 17.484375 -15.71875 C 16.460938 -16.175781 15.382812 -16.5625 14.25 -16.875 C 13.125 -17.195312 12.203125 -17.359375 11.484375 -17.359375 C 10.234375 -17.359375 9.609375 -17.054688 9.609375 -16.453125 C 9.609375 -16.066406 9.828125 -15.738281 10.265625 -15.46875 C 10.703125 -15.207031 11.960938 -14.664062 14.046875 -13.84375 C 15.597656 -13.207031 16.753906 -12.582031 17.515625 -11.96875 C 18.273438 -11.363281 18.832031 -10.644531 19.1875 -9.8125 C 19.550781 -8.988281 19.734375 -7.984375 19.734375 -6.796875 Z M 19.734375 -6.796875 "/></g></g></g><g fill="#ffffff" fill-opacity="1"><g transform="translate(322.501437, 632.649916)"><g><path d="M 23.765625 -11.109375 C 23.765625 -7.492188 22.789062 -4.671875 20.84375 -2.640625 C 18.90625 -0.617188 16.179688 0.390625 12.671875 0.390625 C 9.316406 0.390625 6.644531 -0.644531 4.65625 -2.71875 C 2.675781 -4.789062 1.6875 -7.585938 1.6875 -11.109375 C 1.6875 -14.722656 2.65625 -17.523438 4.59375 -19.515625 C 6.539062 -21.515625 9.273438 -22.515625 12.796875 -22.515625 C 14.972656 -22.515625 16.894531 -22.050781 18.5625 -21.125 C 20.226562 -20.207031 21.507812 -18.882812 22.40625 -17.15625 C 23.3125 -15.4375 23.765625 -13.421875 23.765625 -11.109375 Z M 9.4375 -11.109375 C 9.4375 -9.210938 9.6875 -7.765625 10.1875 -6.765625 C 10.695312 -5.773438 11.550781 -5.28125 12.75 -5.28125 C 13.9375 -5.28125 14.773438 -5.773438 15.265625 -6.765625 C 15.753906 -7.765625 16 -9.210938 16 -11.109375 C 16 -13.003906 15.75 -14.429688 15.25 -15.390625 C 14.757812 -16.359375 13.914062 -16.84375 12.71875 -16.84375 C 11.539062 -16.84375 10.695312 -16.363281 10.1875 -15.40625 C 9.6875 -14.445312 9.4375 -13.015625 9.4375 -11.109375 Z M 9.4375 -11.109375 "/></g></g></g><g fill="#ffffff" fill-opacity="1"><g transform="translate(347.987233, 632.649916)"><g><path d="M -0.046875 -22.125 L 8.015625 -22.125 L 11.765625 -9.4375 C 11.941406 -8.769531 12.0625 -7.96875 12.125 -7.03125 L 12.28125 -7.03125 C 12.382812 -7.925781 12.539062 -8.710938 12.75 -9.390625 L 16.609375 -22.125 L 24.390625 -22.125 L 15.640625 1.40625 C 14.523438 4.40625 13.148438 6.519531 11.515625 7.75 C 9.878906 8.988281 7.75 9.609375 5.125 9.609375 C 4.101562 9.609375 3.0625 9.5 2 9.28125 L 2 3.28125 C 2.6875 3.4375 3.472656 3.515625 4.359375 3.515625 C 5.035156 3.515625 5.625 3.382812 6.125 3.125 C 6.632812 2.863281 7.078125 2.492188 7.453125 2.015625 C 7.835938 1.546875 8.242188 0.769531 8.671875 -0.3125 Z M -0.046875 -22.125 "/></g></g></g><g fill="#ffffff" fill-opacity="1"><g transform="translate(372.379386, 632.649916)"><g/></g></g><g fill="#ffffff" fill-opacity="1"><g transform="translate(382.768995, 632.649916)"><g><path d="M 10.28125 0 L 2.640625 0 L 2.640625 -30.390625 L 10.28125 -30.390625 Z M 10.28125 0 "/></g></g></g><g fill="#ffffff" fill-opacity="1"><g transform="translate(395.697419, 632.649916)"><g><path d="M 23.765625 -11.109375 C 23.765625 -7.492188 22.789062 -4.671875 20.84375 -2.640625 C 18.90625 -0.617188 16.179688 0.390625 12.671875 0.390625 C 9.316406 0.390625 6.644531 -0.644531 4.65625 -2.71875 C 2.675781 -4.789062 1.6875 -7.585938 1.6875 -11.109375 C 1.6875 -14.722656 2.65625 -17.523438 4.59375 -19.515625 C 6.539062 -21.515625 9.273438 -22.515625 12.796875 -22.515625 C 14.972656 -22.515625 16.894531 -22.050781 18.5625 -21.125 C 20.226562 -20.207031 21.507812 -18.882812 22.40625 -17.15625 C 23.3125 -15.4375 23.765625 -13.421875 23.765625 -11.109375 Z M 9.4375 -11.109375 C 9.4375 -9.210938 9.6875 -7.765625 10.1875 -6.765625 C 10.695312 -5.773438 11.550781 -5.28125 12.75 -5.28125 C 13.9375 -5.28125 14.773438 -5.773438 15.265625 -6.765625 C 15.753906 -7.765625 16 -9.210938 16 -11.109375 C 16 -13.003906 15.75 -14.429688 15.25 -15.390625 C 14.757812 -16.359375 13.914062 -16.84375 12.71875 -16.84375 C 11.539062 -16.84375 10.695312 -16.363281 10.1875 -15.40625 C 9.6875 -14.445312 9.4375 -13.015625 9.4375 -11.109375 Z M 9.4375 -11.109375 "/></g></g></g><g fill="#ffffff" fill-opacity="1"><g transform="translate(421.183215, 632.649916)"><g/></g></g><g fill="#ffffff" fill-opacity="1"><g transform="translate(431.572824, 632.649916)"><g><path d="M 9.609375 0.390625 C 7.140625 0.390625 5.203125 -0.625 3.796875 -2.65625 C 2.390625 -4.6875 1.6875 -7.476562 1.6875 -11.03125 C 1.6875 -14.625 2.40625 -17.4375 3.84375 -19.46875 C 5.28125 -21.5 7.242188 -22.515625 9.734375 -22.515625 C 12.398438 -22.515625 14.410156 -21.472656 15.765625 -19.390625 L 15.921875 -19.390625 L 16.484375 -22.125 L 23.09375 -22.125 L 23.09375 9.609375 L 15.453125 9.609375 L 15.453125 0.453125 C 15.453125 0.00390625 15.53125 -1.078125 15.6875 -2.796875 L 15.453125 -2.796875 C 14.203125 -0.671875 12.253906 0.390625 9.609375 0.390625 Z M 12.71875 -5.53125 C 13.875 -5.53125 14.710938 -5.882812 15.234375 -6.59375 C 15.765625 -7.3125 16.03125 -8.523438 16.03125 -10.234375 L 16.03125 -11.15625 C 16.03125 -13.101562 15.765625 -14.5 15.234375 -15.34375 C 14.703125 -16.1875 13.820312 -16.609375 12.59375 -16.609375 C 10.488281 -16.609375 9.4375 -14.710938 9.4375 -10.921875 C 9.4375 -8.992188 9.703125 -7.613281 10.234375 -6.78125 C 10.765625 -5.945312 11.59375 -5.53125 12.71875 -5.53125 Z M 12.71875 -5.53125 "/></g></g></g><g fill="#ffffff" fill-opacity="1"><g transform="translate(457.292972, 632.649916)"><g><path d="M 18.40625 0 L 17.4375 -2.75 L 17 -2.75 C 16.351562 -1.738281 15.460938 -0.960938 14.328125 -0.421875 C 13.191406 0.117188 11.851562 0.390625 10.3125 0.390625 C 7.875 0.390625 5.976562 -0.3125 4.625 -1.71875 C 3.269531 -3.132812 2.59375 -5.132812 2.59375 -7.71875 L 2.59375 -22.125 L 10.234375 -22.125 L 10.234375 -10.046875 C 10.234375 -8.597656 10.4375 -7.5 10.84375 -6.75 C 11.257812 -6.007812 11.9375 -5.640625 12.875 -5.640625 C 14.1875 -5.640625 15.125 -6.15625 15.6875 -7.1875 C 16.25 -8.226562 16.53125 -9.976562 16.53125 -12.4375 L 16.53125 -22.125 L 24.15625 -22.125 L 24.15625 0 Z M 18.40625 0 "/></g></g></g><g fill="#ffffff" fill-opacity="1"><g transform="translate(484.087227, 632.649916)"><g><path d="M 13.328125 0.390625 C 9.640625 0.390625 6.773438 -0.585938 4.734375 -2.546875 C 2.703125 -4.503906 1.6875 -7.296875 1.6875 -10.921875 C 1.6875 -14.660156 2.628906 -17.523438 4.515625 -19.515625 C 6.398438 -21.515625 9.09375 -22.515625 12.59375 -22.515625 C 15.925781 -22.515625 18.5 -21.644531 20.3125 -19.90625 C 22.132812 -18.175781 23.046875 -15.675781 23.046875 -12.40625 L 23.046875 -9 L 9.390625 -9 C 9.441406 -7.769531 9.894531 -6.800781 10.75 -6.09375 C 11.601562 -5.394531 12.765625 -5.046875 14.234375 -5.046875 C 15.578125 -5.046875 16.8125 -5.171875 17.9375 -5.421875 C 19.0625 -5.671875 20.285156 -6.101562 21.609375 -6.71875 L 21.609375 -1.234375 C 20.410156 -0.617188 19.171875 -0.195312 17.890625 0.03125 C 16.617188 0.269531 15.097656 0.390625 13.328125 0.390625 Z M 12.875 -17.328125 C 11.976562 -17.328125 11.222656 -17.039062 10.609375 -16.46875 C 10.003906 -15.90625 9.648438 -15.019531 9.546875 -13.8125 L 16.109375 -13.8125 C 16.085938 -14.875 15.785156 -15.722656 15.203125 -16.359375 C 14.628906 -17.003906 13.851562 -17.328125 12.875 -17.328125 Z M 12.875 -17.328125 "/></g></g></g><g fill="#ffffff" fill-opacity="1"><g transform="translate(328.398051, 688.149911)"><g><path d="M 16.15625 -22.515625 C 18.5625 -22.515625 20.46875 -21.503906 21.875 -19.484375 C 23.289062 -17.472656 24 -14.679688 24 -11.109375 C 24 -7.515625 23.285156 -4.695312 21.859375 -2.65625 C 20.441406 -0.625 18.460938 0.390625 15.921875 0.390625 C 15.097656 0.390625 14.367188 0.300781 13.734375 0.125 C 13.097656 -0.0507812 12.523438 -0.296875 12.015625 -0.609375 C 11.515625 -0.921875 10.9375 -1.441406 10.28125 -2.171875 L 9.8125 -2.171875 L 8.59375 0 L 2.640625 0 L 2.640625 -30.390625 L 10.28125 -30.390625 L 10.28125 -23.515625 C 10.28125 -22.691406 10.1875 -21.28125 10 -19.28125 L 10.28125 -19.28125 C 11.019531 -20.425781 11.875 -21.25 12.84375 -21.75 C 13.8125 -22.257812 14.914062 -22.515625 16.15625 -22.515625 Z M 13.359375 -16.53125 C 12.296875 -16.53125 11.515625 -16.15625 11.015625 -15.40625 C 10.523438 -14.664062 10.28125 -13.503906 10.28125 -11.921875 L 10.28125 -10.84375 C 10.28125 -9.03125 10.523438 -7.726562 11.015625 -6.9375 C 11.515625 -6.15625 12.320312 -5.765625 13.4375 -5.765625 C 14.332031 -5.765625 15.019531 -6.222656 15.5 -7.140625 C 15.988281 -8.054688 16.234375 -9.40625 16.234375 -11.1875 C 16.234375 -14.75 15.273438 -16.53125 13.359375 -16.53125 Z M 13.359375 -16.53125 "/></g></g></g><g fill="#ffffff" fill-opacity="1"><g transform="translate(354.118198, 688.149911)"><g><path d="M 18.40625 0 L 17.4375 -2.75 L 17 -2.75 C 16.351562 -1.738281 15.460938 -0.960938 14.328125 -0.421875 C 13.191406 0.117188 11.851562 0.390625 10.3125 0.390625 C 7.875 0.390625 5.976562 -0.3125 4.625 -1.71875 C 3.269531 -3.132812 2.59375 -5.132812 2.59375 -7.71875 L 2.59375 -22.125 L 10.234375 -22.125 L 10.234375 -10.046875 C 10.234375 -8.597656 10.4375 -7.5 10.84375 -6.75 C 11.257812 -6.007812 11.9375 -5.640625 12.875 -5.640625 C 14.1875 -5.640625 15.125 -6.15625 15.6875 -7.1875 C 16.25 -8.226562 16.53125 -9.976562 16.53125 -12.4375 L 16.53125 -22.125 L 24.15625 -22.125 L 24.15625 0 Z M 18.40625 0 "/></g></g></g><g fill="#ffffff" fill-opacity="1"><g transform="translate(380.912454, 688.149911)"><g><path d="M 19.734375 -6.796875 C 19.734375 -4.429688 18.925781 -2.640625 17.3125 -1.421875 C 15.695312 -0.210938 13.378906 0.390625 10.359375 0.390625 C 8.710938 0.390625 7.285156 0.300781 6.078125 0.125 C 4.867188 -0.0507812 3.628906 -0.375 2.359375 -0.84375 L 2.359375 -6.953125 C 3.546875 -6.429688 4.84375 -6 6.25 -5.65625 C 7.664062 -5.320312 8.929688 -5.15625 10.046875 -5.15625 C 11.691406 -5.15625 12.515625 -5.535156 12.515625 -6.296875 C 12.515625 -6.679688 12.285156 -7.023438 11.828125 -7.328125 C 11.367188 -7.640625 10.023438 -8.238281 7.796875 -9.125 C 5.765625 -9.957031 4.34375 -10.90625 3.53125 -11.96875 C 2.726562 -13.03125 2.328125 -14.375 2.328125 -16 C 2.328125 -18.050781 3.117188 -19.648438 4.703125 -20.796875 C 6.296875 -21.941406 8.546875 -22.515625 11.453125 -22.515625 C 12.910156 -22.515625 14.28125 -22.351562 15.5625 -22.03125 C 16.84375 -21.71875 18.171875 -21.253906 19.546875 -20.640625 L 17.484375 -15.71875 C 16.460938 -16.175781 15.382812 -16.5625 14.25 -16.875 C 13.125 -17.195312 12.203125 -17.359375 11.484375 -17.359375 C 10.234375 -17.359375 9.609375 -17.054688 9.609375 -16.453125 C 9.609375 -16.066406 9.828125 -15.738281 10.265625 -15.46875 C 10.703125 -15.207031 11.960938 -14.664062 14.046875 -13.84375 C 15.597656 -13.207031 16.753906 -12.582031 17.515625 -11.96875 C 18.273438 -11.363281 18.832031 -10.644531 19.1875 -9.8125 C 19.550781 -8.988281 19.734375 -7.984375 19.734375 -6.796875 Z M 19.734375 -6.796875 "/></g></g></g><g fill="#ffffff" fill-opacity="1"><g transform="translate(402.238494, 688.149911)"><g><path d="M 12.71875 0.390625 C 9.09375 0.390625 6.347656 -0.582031 4.484375 -2.53125 C 2.617188 -4.488281 1.6875 -7.296875 1.6875 -10.953125 C 1.6875 -14.628906 2.691406 -17.472656 4.703125 -19.484375 C 6.722656 -21.503906 9.597656 -22.515625 13.328125 -22.515625 C 15.890625 -22.515625 18.300781 -21.957031 20.5625 -20.84375 L 18.328125 -15.203125 C 17.398438 -15.597656 16.546875 -15.914062 15.765625 -16.15625 C 14.984375 -16.40625 14.171875 -16.53125 13.328125 -16.53125 C 12.085938 -16.53125 11.128906 -16.046875 10.453125 -15.078125 C 9.773438 -14.117188 9.4375 -12.757812 9.4375 -11 C 9.4375 -7.457031 10.742188 -5.6875 13.359375 -5.6875 C 15.597656 -5.6875 17.75 -6.335938 19.8125 -7.640625 L 19.8125 -1.5625 C 17.84375 -0.257812 15.476562 0.390625 12.71875 0.390625 Z M 12.71875 0.390625 "/></g></g></g><g fill="#ffffff" fill-opacity="1"><g transform="translate(423.798886, 688.149911)"><g><path d="M 17.078125 0 L 15.609375 -2.9375 L 15.453125 -2.9375 C 14.421875 -1.65625 13.367188 -0.78125 12.296875 -0.3125 C 11.234375 0.15625 9.859375 0.390625 8.171875 0.390625 C 6.085938 0.390625 4.445312 -0.234375 3.25 -1.484375 C 2.050781 -2.734375 1.453125 -4.492188 1.453125 -6.765625 C 1.453125 -9.117188 2.269531 -10.867188 3.90625 -12.015625 C 5.550781 -13.171875 7.925781 -13.820312 11.03125 -13.96875 L 14.734375 -14.078125 L 14.734375 -14.390625 C 14.734375 -16.210938 13.832031 -17.125 12.03125 -17.125 C 10.414062 -17.125 8.363281 -16.578125 5.875 -15.484375 L 3.671875 -20.53125 C 6.253906 -21.851562 9.507812 -22.515625 13.4375 -22.515625 C 16.28125 -22.515625 18.476562 -21.8125 20.03125 -20.40625 C 21.582031 -19 22.359375 -17.035156 22.359375 -14.515625 L 22.359375 0 Z M 11.40625 -5 C 12.332031 -5 13.125 -5.289062 13.78125 -5.875 C 14.4375 -6.46875 14.765625 -7.234375 14.765625 -8.171875 L 14.765625 -9.890625 L 13.015625 -9.8125 C 10.492188 -9.71875 9.234375 -8.789062 9.234375 -7.03125 C 9.234375 -5.675781 9.957031 -5 11.40625 -5 Z M 11.40625 -5 "/></g></g></g><g fill="#ffffff" fill-opacity="1"><g transform="translate(448.718326, 688.149911)"><g><path d="M 19.734375 -6.796875 C 19.734375 -4.429688 18.925781 -2.640625 17.3125 -1.421875 C 15.695312 -0.210938 13.378906 0.390625 10.359375 0.390625 C 8.710938 0.390625 7.285156 0.300781 6.078125 0.125 C 4.867188 -0.0507812 3.628906 -0.375 2.359375 -0.84375 L 2.359375 -6.953125 C 3.546875 -6.429688 4.84375 -6 6.25 -5.65625 C 7.664062 -5.320312 8.929688 -5.15625 10.046875 -5.15625 C 11.691406 -5.15625 12.515625 -5.535156 12.515625 -6.296875 C 12.515625 -6.679688 12.285156 -7.023438 11.828125 -7.328125 C 11.367188 -7.640625 10.023438 -8.238281 7.796875 -9.125 C 5.765625 -9.957031 4.34375 -10.90625 3.53125 -11.96875 C 2.726562 -13.03125 2.328125 -14.375 2.328125 -16 C 2.328125 -18.050781 3.117188 -19.648438 4.703125 -20.796875 C 6.296875 -21.941406 8.546875 -22.515625 11.453125 -22.515625 C 12.910156 -22.515625 14.28125 -22.351562 15.5625 -22.03125 C 16.84375 -21.71875 18.171875 -21.253906 19.546875 -20.640625 L 17.484375 -15.71875 C 16.460938 -16.175781 15.382812 -16.5625 14.25 -16.875 C 13.125 -17.195312 12.203125 -17.359375 11.484375 -17.359375 C 10.234375 -17.359375 9.609375 -17.054688 9.609375 -16.453125 C 9.609375 -16.066406 9.828125 -15.738281 10.265625 -15.46875 C 10.703125 -15.207031 11.960938 -14.664062 14.046875 -13.84375 C 15.597656 -13.207031 16.753906 -12.582031 17.515625 -11.96875 C 18.273438 -11.363281 18.832031 -10.644531 19.1875 -9.8125 C 19.550781 -8.988281 19.734375 -7.984375 19.734375 -6.796875 Z M 19.734375 -6.796875 "/></g></g></g><g fill="#ffffff" fill-opacity="1"><g transform="translate(470.044366, 688.149911)"><g><path d="M 1.6875 -3.25 C 1.6875 -4.445312 2.039062 -5.367188 2.75 -6.015625 C 3.457031 -6.671875 4.488281 -7 5.84375 -7 C 7.132812 -7 8.125 -6.671875 8.8125 -6.015625 C 9.5 -5.367188 9.84375 -4.445312 9.84375 -3.25 C 9.84375 -2.070312 9.488281 -1.15625 8.78125 -0.5 C 8.070312 0.15625 7.09375 0.484375 5.84375 0.484375 C 4.550781 0.484375 3.535156 0.160156 2.796875 -0.484375 C 2.054688 -1.140625 1.6875 -2.0625 1.6875 -3.25 Z M 1.6875 -3.25 "/></g></g></g></svg>